<svg width="430" height="28" viewBox="0 0 430 28" fill="none" xmlns="http://www.w3.org/2000/svg">
<path d="M0.388965 12.275C0.388965 10.575 0.772298 9.05 1.53896 7.7C2.30563 6.33333 3.3473 5.26667 4.66397 4.5C5.9973 3.73333 7.4723 3.35 9.08897 3.35C10.989 3.35 12.6473 3.80833 14.064 4.725C15.4806 5.64167 16.514 6.94167 17.164 8.625H14.439C13.9556 7.575 13.2556 6.76667 12.339 6.2C11.439 5.63333 10.3556 5.35 9.08897 5.35C7.8723 5.35 6.78063 5.63333 5.81397 6.2C4.8473 6.76667 4.08897 7.575 3.53897 8.625C2.98897 9.65833 2.71397 10.875 2.71397 12.275C2.71397 13.6583 2.98897 14.875 3.53897 15.925C4.08897 16.9583 4.8473 17.7583 5.81397 18.325C6.78063 18.8917 7.8723 19.175 9.08897 19.175C10.3556 19.175 11.439 18.9 12.339 18.35C13.2556 17.7833 13.9556 16.975 14.439 15.925H17.164C16.514 17.5917 15.4806 18.8833 14.064 19.8C12.6473 20.7 10.989 21.15 9.08897 21.15C7.4723 21.15 5.9973 20.775 4.66397 20.025C3.3473 19.2583 2.30563 18.2 1.53896 16.85C0.772298 15.5 0.388965 13.975 0.388965 12.275ZM19.7005 14.1C19.7005 12.7 19.9838 11.475 20.5505 10.425C21.1172 9.35833 21.8922 8.53333 22.8755 7.95C23.8755 7.36667 24.9838 7.075 26.2005 7.075C27.4005 7.075 28.4422 7.33333 29.3255 7.85C30.2088 8.36667 30.8672 9.01667 31.3005 9.8V7.3H33.6005V21H31.3005V18.45C30.8505 19.25 30.1755 19.9167 29.2755 20.45C28.3922 20.9667 27.3588 21.225 26.1755 21.225C24.9588 21.225 23.8588 20.925 22.8755 20.325C21.8922 19.725 21.1172 18.8833 20.5505 17.8C19.9838 16.7167 19.7005 15.4833 19.7005 14.1ZM31.3005 14.125C31.3005 13.0917 31.0922 12.1917 30.6755 11.425C30.2588 10.6583 29.6922 10.075 28.9755 9.675C28.2755 9.25833 27.5005 9.05 26.6505 9.05C25.8005 9.05 25.0255 9.25 24.3255 9.65C23.6255 10.05 23.0672 10.6333 22.6505 11.4C22.2338 12.1667 22.0255 13.0667 22.0255 14.1C22.0255 15.15 22.2338 16.0667 22.6505 16.85C23.0672 17.6167 23.6255 18.2083 24.3255 18.625C25.0255 19.025 25.8005 19.225 26.6505 19.225C27.5005 19.225 28.2755 19.025 28.9755 18.625C29.6922 18.2083 30.2588 17.6167 30.6755 16.85C31.0922 16.0667 31.3005 15.1583 31.3005 14.125ZM39.72 2.5V21H37.445V2.5H39.72ZM42.7474 14.125C42.7474 12.7083 43.0307 11.475 43.5974 10.425C44.164 9.35833 44.9474 8.53333 45.9474 7.95C46.964 7.36667 48.1224 7.075 49.4224 7.075C51.1057 7.075 52.489 7.48333 53.5724 8.3C54.6724 9.11667 55.3974 10.25 55.7474 11.7H53.2974C53.064 10.8667 52.6057 10.2083 51.9224 9.725C51.2557 9.24167 50.4224 9 49.4224 9C48.1224 9 47.0724 9.45 46.2724 10.35C45.4724 11.2333 45.0724 12.4917 45.0724 14.125C45.0724 15.775 45.4724 17.05 46.2724 17.95C47.0724 18.85 48.1224 19.3 49.4224 19.3C50.4224 19.3 51.2557 19.0667 51.9224 18.6C52.589 18.1333 53.0474 17.4667 53.2974 16.6H55.7474C55.3807 18 54.6474 19.125 53.5474 19.975C52.4474 20.8083 51.0724 21.225 49.4224 21.225C48.1224 21.225 46.964 20.9333 45.9474 20.35C44.9474 19.7667 44.164 18.9417 43.5974 17.875C43.0307 16.8083 42.7474 15.5583 42.7474 14.125ZM70.9329 7.3V21H68.6579V18.975C68.2246 19.675 67.6162 20.225 66.8329 20.625C66.0662 21.0083 65.2162 21.2 64.2829 21.2C63.2162 21.2 62.2579 20.9833 61.4079 20.55C60.5579 20.1 59.8829 19.4333 59.3829 18.55C58.8996 17.6667 58.6579 16.5917 58.6579 15.325V7.3H60.9079V15.025C60.9079 16.375 61.2496 17.4167 61.9329 18.15C62.6162 18.8667 63.5496 19.225 64.7329 19.225C65.9496 19.225 66.9079 18.85 67.6079 18.1C68.3079 17.35 68.6579 16.2583 68.6579 14.825V7.3H70.9329ZM77.0491 2.5V21H74.7741V2.5H77.0491ZM80.0765 14.1C80.0765 12.7 80.3598 11.475 80.9265 10.425C81.4931 9.35833 82.2681 8.53333 83.2515 7.95C84.2515 7.36667 85.3598 7.075 86.5765 7.075C87.7765 7.075 88.8181 7.33333 89.7015 7.85C90.5848 8.36667 91.2431 9.01667 91.6765 9.8V7.3H93.9765V21H91.6765V18.45C91.2265 19.25 90.5515 19.9167 89.6515 20.45C88.7681 20.9667 87.7348 21.225 86.5515 21.225C85.3348 21.225 84.2348 20.925 83.2515 20.325C82.2681 19.725 81.4931 18.8833 80.9265 17.8C80.3598 16.7167 80.0765 15.4833 80.0765 14.1ZM91.6765 14.125C91.6765 13.0917 91.4681 12.1917 91.0515 11.425C90.6348 10.6583 90.0681 10.075 89.3515 9.675C88.6515 9.25833 87.8765 9.05 87.0265 9.05C86.1765 9.05 85.4015 9.25 84.7015 9.65C84.0015 10.05 83.4431 10.6333 83.0265 11.4C82.6098 12.1667 82.4015 13.0667 82.4015 14.1C82.4015 15.15 82.6098 16.0667 83.0265 16.85C83.4431 17.6167 84.0015 18.2083 84.7015 18.625C85.4015 19.025 86.1765 19.225 87.0265 19.225C87.8765 19.225 88.6515 19.025 89.3515 18.625C90.0681 18.2083 90.6348 17.6167 91.0515 16.85C91.4681 16.0667 91.6765 15.1583 91.6765 14.125ZM100.596 9.175V17.25C100.596 17.9167 100.738 18.3917 101.021 18.675C101.304 18.9417 101.796 19.075 102.496 19.075H104.171V21H102.121C100.854 21 99.9043 20.7083 99.271 20.125C98.6377 19.5417 98.321 18.5833 98.321 17.25V9.175H96.546V7.3H98.321V3.85H100.596V7.3H104.171V9.175H100.596ZM119.427 13.625C119.427 14.0583 119.402 14.5167 119.352 15H108.402C108.486 16.35 108.944 17.4083 109.777 18.175C110.627 18.925 111.652 19.3 112.852 19.3C113.836 19.3 114.652 19.075 115.302 18.625C115.969 18.1583 116.436 17.5417 116.702 16.775H119.152C118.786 18.0917 118.052 19.1667 116.952 20C115.852 20.8167 114.486 21.225 112.852 21.225C111.552 21.225 110.386 20.9333 109.352 20.35C108.336 19.7667 107.536 18.9417 106.952 17.875C106.369 16.7917 106.077 15.5417 106.077 14.125C106.077 12.7083 106.361 11.4667 106.927 10.4C107.494 9.33333 108.286 8.51667 109.302 7.95C110.336 7.36667 111.519 7.075 112.852 7.075C114.152 7.075 115.302 7.35833 116.302 7.925C117.302 8.49167 118.069 9.275 118.602 10.275C119.152 11.2583 119.427 12.375 119.427 13.625ZM117.077 13.15C117.077 12.2833 116.886 11.5417 116.502 10.925C116.119 10.2917 115.594 9.81667 114.927 9.5C114.277 9.16667 113.552 9 112.752 9C111.602 9 110.619 9.36667 109.802 10.1C109.002 10.8333 108.544 11.85 108.427 13.15H117.077ZM137.82 12.025C138.454 12.125 139.029 12.3833 139.545 12.8C140.079 13.2167 140.495 13.7333 140.795 14.35C141.112 14.9667 141.27 15.625 141.27 16.325C141.27 17.2083 141.045 18.0083 140.595 18.725C140.145 19.425 139.487 19.9833 138.62 20.4C137.77 20.8 136.762 21 135.595 21H129.095V3.575H135.345C136.529 3.575 137.537 3.775 138.37 4.175C139.204 4.55833 139.829 5.08333 140.245 5.75C140.662 6.41667 140.87 7.16667 140.87 8C140.87 9.03333 140.587 9.89167 140.02 10.575C139.47 11.2417 138.737 11.725 137.82 12.025ZM131.37 11.1H135.195C136.262 11.1 137.087 10.85 137.67 10.35C138.254 9.85 138.545 9.15833 138.545 8.275C138.545 7.39167 138.254 6.7 137.67 6.2C137.087 5.7 136.245 5.45 135.145 5.45H131.37V11.1ZM135.395 19.125C136.529 19.125 137.412 18.8583 138.045 18.325C138.679 17.7917 138.995 17.05 138.995 16.1C138.995 15.1333 138.662 14.375 137.995 13.825C137.329 13.2583 136.437 12.975 135.32 12.975H131.37V19.125H135.395ZM146.702 19.15H152.802V21H144.427V3.575H146.702V19.15ZM164.393 21L160.243 13.875H157.493V21H155.218V3.575H160.843C162.16 3.575 163.268 3.8 164.168 4.25C165.085 4.7 165.768 5.30833 166.218 6.075C166.668 6.84167 166.893 7.71667 166.893 8.7C166.893 9.9 166.543 10.9583 165.843 11.875C165.16 12.7917 164.127 13.4 162.743 13.7L167.118 21H164.393ZM157.493 12.05H160.843C162.077 12.05 163.002 11.75 163.618 11.15C164.235 10.5333 164.543 9.71667 164.543 8.7C164.543 7.66667 164.235 6.86667 163.618 6.3C163.018 5.73333 162.093 5.45 160.843 5.45H157.493V12.05ZM175.953 21.175C174.803 21.175 173.77 20.975 172.853 20.575C171.953 20.1583 171.245 19.5917 170.728 18.875C170.212 18.1417 169.945 17.3 169.928 16.35H172.353C172.437 17.1667 172.77 17.8583 173.353 18.425C173.953 18.975 174.82 19.25 175.953 19.25C177.037 19.25 177.887 18.9833 178.503 18.45C179.137 17.9 179.453 17.2 179.453 16.35C179.453 15.6833 179.27 15.1417 178.903 14.725C178.537 14.3083 178.078 13.9917 177.528 13.775C176.978 13.5583 176.237 13.325 175.303 13.075C174.153 12.775 173.228 12.475 172.528 12.175C171.845 11.875 171.253 11.4083 170.753 10.775C170.27 10.125 170.028 9.25833 170.028 8.175C170.028 7.225 170.27 6.38333 170.753 5.65C171.237 4.91667 171.912 4.35 172.778 3.95C173.662 3.55 174.67 3.35 175.803 3.35C177.437 3.35 178.77 3.75833 179.803 4.575C180.853 5.39167 181.445 6.475 181.578 7.825H179.078C178.995 7.15833 178.645 6.575 178.028 6.075C177.412 5.55833 176.595 5.3 175.578 5.3C174.628 5.3 173.853 5.55 173.253 6.05C172.653 6.53333 172.353 7.21667 172.353 8.1C172.353 8.73333 172.528 9.25 172.878 9.65C173.245 10.05 173.687 10.3583 174.203 10.575C174.737 10.775 175.478 11.0083 176.428 11.275C177.578 11.5917 178.503 11.9083 179.203 12.225C179.903 12.525 180.503 13 181.003 13.65C181.503 14.2833 181.753 15.15 181.753 16.25C181.753 17.1 181.528 17.9 181.078 18.65C180.628 19.4 179.962 20.0083 179.078 20.475C178.195 20.9417 177.153 21.175 175.953 21.175ZM194.316 16.15C194.483 17.1 194.866 17.8333 195.466 18.35C196.083 18.8667 196.908 19.125 197.941 19.125C199.325 19.125 200.341 18.5833 200.991 17.5C201.658 16.4167 201.975 14.5917 201.941 12.025C201.591 12.775 201.008 13.3667 200.191 13.8C199.375 14.2167 198.466 14.425 197.466 14.425C196.35 14.425 195.35 14.2 194.466 13.75C193.6 13.2833 192.916 12.6083 192.416 11.725C191.916 10.8417 191.666 9.775 191.666 8.525C191.666 6.74167 192.183 5.30833 193.216 4.225C194.25 3.125 195.716 2.575 197.616 2.575C199.95 2.575 201.583 3.33333 202.516 4.85C203.466 6.36667 203.941 8.625 203.941 11.625C203.941 13.725 203.75 15.4583 203.366 16.825C203 18.1917 202.366 19.2333 201.466 19.95C200.583 20.6667 199.366 21.025 197.816 21.025C196.116 21.025 194.791 20.5667 193.841 19.65C192.891 18.7333 192.35 17.5667 192.216 16.15H194.316ZM197.841 12.5C198.958 12.5 199.875 12.1583 200.591 11.475C201.308 10.775 201.666 9.83333 201.666 8.65C201.666 7.4 201.316 6.39167 200.616 5.625C199.916 4.85833 198.933 4.475 197.666 4.475C196.5 4.475 195.566 4.84167 194.866 5.575C194.183 6.30833 193.841 7.275 193.841 8.475C193.841 9.69167 194.183 10.6667 194.866 11.4C195.55 12.1333 196.541 12.5 197.841 12.5ZM207.138 11.775C207.138 8.90833 207.605 6.675 208.538 5.075C209.472 3.45833 211.105 2.65 213.438 2.65C215.755 2.65 217.38 3.45833 218.313 5.075C219.247 6.675 219.713 8.90833 219.713 11.775C219.713 14.6917 219.247 16.9583 218.313 18.575C217.38 20.1917 215.755 21 213.438 21C211.105 21 209.472 20.1917 208.538 18.575C207.605 16.9583 207.138 14.6917 207.138 11.775ZM217.463 11.775C217.463 10.325 217.363 9.1 217.163 8.1C216.98 7.08333 216.588 6.26667 215.988 5.65C215.405 5.03333 214.555 4.725 213.438 4.725C212.305 4.725 211.438 5.03333 210.838 5.65C210.255 6.26667 209.863 7.08333 209.663 8.1C209.48 9.1 209.388 10.325 209.388 11.775C209.388 13.275 209.48 14.5333 209.663 15.55C209.863 16.5667 210.255 17.3833 210.838 18C211.438 18.6167 212.305 18.925 213.438 18.925C214.555 18.925 215.405 18.6167 215.988 18C216.588 17.3833 216.98 16.5667 217.163 15.55C217.363 14.5333 217.463 13.275 217.463 11.775ZM235.302 3.575C237.202 3.575 238.843 3.93333 240.227 4.65C241.627 5.35 242.693 6.35833 243.427 7.675C244.177 8.99167 244.552 10.5417 244.552 12.325C244.552 14.1083 244.177 15.6583 243.427 16.975C242.693 18.275 241.627 19.275 240.227 19.975C238.843 20.6583 237.202 21 235.302 21H229.877V3.575H235.302ZM235.302 19.125C237.552 19.125 239.268 18.5333 240.452 17.35C241.635 16.15 242.227 14.475 242.227 12.325C242.227 10.1583 241.627 8.46667 240.427 7.25C239.243 6.03333 237.535 5.425 235.302 5.425H232.152V19.125H235.302ZM246.702 14.1C246.702 12.7 246.986 11.475 247.552 10.425C248.119 9.35833 248.894 8.53333 249.877 7.95C250.877 7.36667 251.986 7.075 253.202 7.075C254.402 7.075 255.444 7.33333 256.327 7.85C257.211 8.36667 257.869 9.01667 258.302 9.8V7.3H260.602V21H258.302V18.45C257.852 19.25 257.177 19.9167 256.277 20.45C255.394 20.9667 254.361 21.225 253.177 21.225C251.961 21.225 250.861 20.925 249.877 20.325C248.894 19.725 248.119 18.8833 247.552 17.8C246.986 16.7167 246.702 15.4833 246.702 14.1ZM258.302 14.125C258.302 13.0917 258.094 12.1917 257.677 11.425C257.261 10.6583 256.694 10.075 255.977 9.675C255.277 9.25833 254.502 9.05 253.652 9.05C252.802 9.05 252.027 9.25 251.327 9.65C250.627 10.05 250.069 10.6333 249.652 11.4C249.236 12.1667 249.027 13.0667 249.027 14.1C249.027 15.15 249.236 16.0667 249.652 16.85C250.069 17.6167 250.627 18.2083 251.327 18.625C252.027 19.025 252.802 19.225 253.652 19.225C254.502 19.225 255.277 19.025 255.977 18.625C256.694 18.2083 257.261 17.6167 257.677 16.85C258.094 16.0667 258.302 15.1583 258.302 14.125ZM276.247 7.3L267.997 27.45H265.647L268.347 20.85L262.822 7.3H265.347L269.647 18.4L273.897 7.3H276.247ZM291.174 21.175C289.891 21.175 288.741 20.9667 287.724 20.55C286.707 20.1333 285.891 19.5167 285.274 18.7C284.674 17.8833 284.357 16.9 284.324 15.75H288.874C288.941 16.4 289.166 16.9 289.549 17.25C289.932 17.5833 290.432 17.75 291.049 17.75C291.682 17.75 292.182 17.6083 292.549 17.325C292.916 17.025 293.099 16.6167 293.099 16.1C293.099 15.6667 292.949 15.3083 292.649 15.025C292.366 14.7417 292.007 14.5083 291.574 14.325C291.157 14.1417 290.557 13.9333 289.774 13.7C288.641 13.35 287.716 13 286.999 12.65C286.282 12.3 285.666 11.7833 285.149 11.1C284.632 10.4167 284.374 9.525 284.374 8.425C284.374 6.79167 284.966 5.51667 286.149 4.6C287.332 3.66667 288.874 3.2 290.774 3.2C292.707 3.2 294.266 3.66667 295.449 4.6C296.632 5.51667 297.266 6.8 297.349 8.45H292.724C292.691 7.88333 292.482 7.44167 292.099 7.125C291.716 6.79167 291.224 6.625 290.624 6.625C290.107 6.625 289.691 6.76667 289.374 7.05C289.057 7.31667 288.899 7.70833 288.899 8.225C288.899 8.79167 289.166 9.23333 289.699 9.55C290.232 9.86667 291.066 10.2083 292.199 10.575C293.332 10.9583 294.249 11.325 294.949 11.675C295.666 12.025 296.282 12.5333 296.799 13.2C297.316 13.8667 297.574 14.725 297.574 15.775C297.574 16.775 297.316 17.6833 296.799 18.5C296.299 19.3167 295.566 19.9667 294.599 20.45C293.632 20.9333 292.491 21.175 291.174 21.175ZM307.98 17.375V21H305.805C304.255 21 303.046 20.625 302.18 19.875C301.313 19.1083 300.88 17.8667 300.88 16.15V10.6H299.18V7.05H300.88V3.65H305.155V7.05H307.955V10.6H305.155V16.2C305.155 16.6167 305.255 16.9167 305.455 17.1C305.655 17.2833 305.988 17.375 306.455 17.375H307.98ZM309.511 14C309.511 12.5667 309.778 11.3083 310.311 10.225C310.861 9.14167 311.603 8.30833 312.536 7.725C313.469 7.14167 314.511 6.85 315.661 6.85C316.644 6.85 317.503 7.05 318.236 7.45C318.986 7.85 319.561 8.375 319.961 9.025V7.05H324.236V21H319.961V19.025C319.544 19.675 318.961 20.2 318.211 20.6C317.478 21 316.619 21.2 315.636 21.2C314.503 21.2 313.469 20.9083 312.536 20.325C311.603 19.725 310.861 18.8833 310.311 17.8C309.778 16.7 309.511 15.4333 309.511 14ZM319.961 14.025C319.961 12.9583 319.661 12.1167 319.061 11.5C318.478 10.8833 317.761 10.575 316.911 10.575C316.061 10.575 315.336 10.8833 314.736 11.5C314.153 12.1 313.861 12.9333 313.861 14C313.861 15.0667 314.153 15.9167 314.736 16.55C315.336 17.1667 316.061 17.475 316.911 17.475C317.761 17.475 318.478 17.1667 319.061 16.55C319.661 15.9333 319.961 15.0917 319.961 14.025ZM335.854 21L331.604 15.15V21H327.329V2.5H331.604V12.725L335.829 7.05H341.104L335.304 14.05L341.154 21H335.854ZM355.933 13.8C355.933 14.2 355.908 14.6167 355.858 15.05H346.183C346.25 15.9167 346.525 16.5833 347.008 17.05C347.508 17.5 348.116 17.725 348.833 17.725C349.9 17.725 350.641 17.275 351.058 16.375H355.608C355.375 17.2917 354.95 18.1167 354.333 18.85C353.733 19.5833 352.975 20.1583 352.058 20.575C351.141 20.9917 350.116 21.2 348.983 21.2C347.616 21.2 346.4 20.9083 345.333 20.325C344.266 19.7417 343.433 18.9083 342.833 17.825C342.233 16.7417 341.933 15.475 341.933 14.025C341.933 12.575 342.225 11.3083 342.808 10.225C343.408 9.14167 344.241 8.30833 345.308 7.725C346.375 7.14167 347.6 6.85 348.983 6.85C350.333 6.85 351.533 7.13333 352.583 7.7C353.633 8.26667 354.45 9.075 355.033 10.125C355.633 11.175 355.933 12.4 355.933 13.8ZM351.558 12.675C351.558 11.9417 351.308 11.3583 350.808 10.925C350.308 10.4917 349.683 10.275 348.933 10.275C348.216 10.275 347.608 10.4833 347.108 10.9C346.625 11.3167 346.325 11.9083 346.208 12.675H351.558ZM376.861 9.1C376.861 10.1167 376.628 11.05 376.161 11.9C375.694 12.7333 374.978 13.4083 374.011 13.925C373.044 14.4417 371.844 14.7 370.411 14.7H367.761V21H363.486V3.45H370.411C371.811 3.45 372.994 3.69167 373.961 4.175C374.928 4.65833 375.653 5.325 376.136 6.175C376.619 7.025 376.861 8 376.861 9.1ZM370.086 11.3C370.903 11.3 371.511 11.1083 371.911 10.725C372.311 10.3417 372.511 9.8 372.511 9.1C372.511 8.4 372.311 7.85833 371.911 7.475C371.511 7.09167 370.903 6.9 370.086 6.9H367.761V11.3H370.086ZM383.362 9.375C383.862 8.60833 384.487 8.00833 385.237 7.575C385.987 7.125 386.82 6.9 387.737 6.9V11.425H386.562C385.495 11.425 384.695 11.6583 384.162 12.125C383.628 12.575 383.362 13.375 383.362 14.525V21H379.087V7.05H383.362V9.375ZM396.13 21.2C394.763 21.2 393.53 20.9083 392.43 20.325C391.347 19.7417 390.488 18.9083 389.855 17.825C389.238 16.7417 388.93 15.475 388.93 14.025C388.93 12.5917 389.247 11.3333 389.88 10.25C390.513 9.15 391.38 8.30833 392.48 7.725C393.58 7.14167 394.813 6.85 396.18 6.85C397.547 6.85 398.78 7.14167 399.88 7.725C400.98 8.30833 401.847 9.15 402.48 10.25C403.113 11.3333 403.43 12.5917 403.43 14.025C403.43 15.4583 403.105 16.725 402.455 17.825C401.822 18.9083 400.947 19.7417 399.83 20.325C398.73 20.9083 397.497 21.2 396.13 21.2ZM396.13 17.5C396.947 17.5 397.638 17.2 398.205 16.6C398.788 16 399.08 15.1417 399.08 14.025C399.08 12.9083 398.797 12.05 398.23 11.45C397.68 10.85 396.997 10.55 396.18 10.55C395.347 10.55 394.655 10.85 394.105 11.45C393.555 12.0333 393.28 12.8917 393.28 14.025C393.28 15.1417 393.547 16 394.08 16.6C394.63 17.2 395.313 17.5 396.13 17.5ZM412.698 10.6H410.398V21H406.123V10.6H404.573V7.05H406.123V6.65C406.123 4.93333 406.615 3.63333 407.598 2.75C408.581 1.85 410.023 1.4 411.923 1.4C412.24 1.4 412.473 1.40833 412.623 1.425V5.05C411.806 5 411.231 5.11667 410.898 5.4C410.565 5.68333 410.398 6.19167 410.398 6.925V7.05H412.698V10.6ZM416.857 5.6C416.107 5.6 415.49 5.38333 415.007 4.95C414.54 4.5 414.307 3.95 414.307 3.3C414.307 2.63333 414.54 2.08333 415.007 1.65C415.49 1.2 416.107 0.974999 416.857 0.974999C417.59 0.974999 418.19 1.2 418.657 1.65C419.14 2.08333 419.382 2.63333 419.382 3.3C419.382 3.95 419.14 4.5 418.657 4.95C418.19 5.38333 417.59 5.6 416.857 5.6ZM418.982 7.05V21H414.707V7.05H418.982ZM429.855 17.375V21H427.68C426.13 21 424.921 20.625 424.055 19.875C423.188 19.1083 422.755 17.8667 422.755 16.15V10.6H421.055V7.05H422.755V3.65H427.03V7.05H429.83V10.6H427.03V16.2C427.03 16.6167 427.13 16.9167 427.33 17.1C427.53 17.2833 427.863 17.375 428.33 17.375H429.855Z" fill="url(#paint0_linear)"/>
<defs>
<linearGradient id="paint0_linear" x1="-1" y1="8.83336" x2="430.99" y2="13.009" gradientUnits="userSpaceOnUse">
<stop stop-color="#C35F29"/>
<stop offset="1" stop-color="#D9239D"/>
</linearGradient>
</defs>
</svg>
