<svg width="332" height="69" viewBox="0 0 332 69" fill="none" xmlns="http://www.w3.org/2000/svg">
<path d="M0.29 12.53C0.29 10.49 0.75 8.66 1.67 7.04C2.59 5.4 3.84 4.12 5.42 3.2C7.02 2.28 8.79 1.82 10.73 1.82C13.01 1.82 15 2.37 16.7 3.47C18.4 4.57 19.64 6.13 20.42 8.15H17.15C16.57 6.89 15.73 5.92 14.63 5.24C13.55 4.56 12.25 4.22 10.73 4.22C9.27 4.22 7.96 4.56 6.8 5.24C5.64 5.92 4.73 6.89 4.07 8.15C3.41 9.39 3.08 10.85 3.08 12.53C3.08 14.19 3.41 15.65 4.07 16.91C4.73 18.15 5.64 19.11 6.8 19.79C7.96 20.47 9.27 20.81 10.73 20.81C12.25 20.81 13.55 20.48 14.63 19.82C15.73 19.14 16.57 18.17 17.15 16.91H20.42C19.64 18.91 18.4 20.46 16.7 21.56C15 22.64 13.01 23.18 10.73 23.18C8.79 23.18 7.02 22.73 5.42 21.83C3.84 20.91 2.59 19.64 1.67 18.02C0.75 16.4 0.29 14.57 0.29 12.53ZM23.4638 14.72C23.4638 13.04 23.8038 11.57 24.4838 10.31C25.1638 9.03 26.0938 8.04 27.2738 7.34C28.4738 6.64 29.8038 6.29 31.2638 6.29C32.7038 6.29 33.9538 6.6 35.0138 7.22C36.0738 7.84 36.8638 8.62 37.3838 9.56V6.56H40.1438V23H37.3838V19.94C36.8438 20.9 36.0338 21.7 34.9538 22.34C33.8938 22.96 32.6538 23.27 31.2338 23.27C29.7738 23.27 28.4538 22.91 27.2738 22.19C26.0938 21.47 25.1638 20.46 24.4838 19.16C23.8038 17.86 23.4638 16.38 23.4638 14.72ZM37.3838 14.75C37.3838 13.51 37.1338 12.43 36.6338 11.51C36.1338 10.59 35.4538 9.89 34.5938 9.41C33.7538 8.91 32.8238 8.66 31.8038 8.66C30.7838 8.66 29.8538 8.9 29.0138 9.38C28.1738 9.86 27.5038 10.56 27.0038 11.48C26.5038 12.4 26.2538 13.48 26.2538 14.72C26.2538 15.98 26.5038 17.08 27.0038 18.02C27.5038 18.94 28.1738 19.65 29.0138 20.15C29.8538 20.63 30.7838 20.87 31.8038 20.87C32.8238 20.87 33.7538 20.63 34.5938 20.15C35.4538 19.65 36.1338 18.94 36.6338 18.02C37.1338 17.08 37.3838 15.99 37.3838 14.75ZM47.4873 0.8V23H44.7573V0.8H47.4873ZM51.1201 14.75C51.1201 13.05 51.4601 11.57 52.1401 10.31C52.8201 9.03 53.7601 8.04 54.9601 7.34C56.1801 6.64 57.5701 6.29 59.1301 6.29C61.1501 6.29 62.8101 6.78 64.1101 7.76C65.4301 8.74 66.3001 10.1 66.7201 11.84H63.7801C63.5001 10.84 62.9501 10.05 62.1301 9.47C61.3301 8.89 60.3301 8.6 59.1301 8.6C57.5701 8.6 56.3101 9.14 55.3501 10.22C54.3901 11.28 53.9101 12.79 53.9101 14.75C53.9101 16.73 54.3901 18.26 55.3501 19.34C56.3101 20.42 57.5701 20.96 59.1301 20.96C60.3301 20.96 61.3301 20.68 62.1301 20.12C62.9301 19.56 63.4801 18.76 63.7801 17.72H66.7201C66.2801 19.4 65.4001 20.75 64.0801 21.77C62.7601 22.77 61.1101 23.27 59.1301 23.27C57.5701 23.27 56.1801 22.92 54.9601 22.22C53.7601 21.52 52.8201 20.53 52.1401 19.25C51.4601 17.97 51.1201 16.47 51.1201 14.75ZM84.9427 6.56V23H82.2127V20.57C81.6927 21.41 80.9627 22.07 80.0227 22.55C79.1027 23.01 78.0827 23.24 76.9627 23.24C75.6827 23.24 74.5327 22.98 73.5127 22.46C72.4927 21.92 71.6827 21.12 71.0827 20.06C70.5027 19 70.2127 17.71 70.2127 16.19V6.56H72.9127V15.83C72.9127 17.45 73.3227 18.7 74.1427 19.58C74.9627 20.44 76.0827 20.87 77.5027 20.87C78.9627 20.87 80.1127 20.42 80.9527 19.52C81.7927 18.62 82.2127 17.31 82.2127 15.59V6.56H84.9427ZM92.2822 0.8V23H89.5522V0.8H92.2822ZM95.915 14.72C95.915 13.04 96.255 11.57 96.935 10.31C97.615 9.03 98.545 8.04 99.725 7.34C100.925 6.64 102.255 6.29 103.715 6.29C105.155 6.29 106.405 6.6 107.465 7.22C108.525 7.84 109.315 8.62 109.835 9.56V6.56H112.595V23H109.835V19.94C109.295 20.9 108.485 21.7 107.405 22.34C106.345 22.96 105.105 23.27 103.685 23.27C102.225 23.27 100.905 22.91 99.725 22.19C98.545 21.47 97.615 20.46 96.935 19.16C96.255 17.86 95.915 16.38 95.915 14.72ZM109.835 14.75C109.835 13.51 109.585 12.43 109.085 11.51C108.585 10.59 107.905 9.89 107.045 9.41C106.205 8.91 105.275 8.66 104.255 8.66C103.235 8.66 102.305 8.9 101.465 9.38C100.625 9.86 99.955 10.56 99.455 11.48C98.955 12.4 98.705 13.48 98.705 14.72C98.705 15.98 98.955 17.08 99.455 18.02C99.955 18.94 100.625 19.65 101.465 20.15C102.305 20.63 103.235 20.87 104.255 20.87C105.275 20.87 106.205 20.63 107.045 20.15C107.905 19.65 108.585 18.94 109.085 18.02C109.585 17.08 109.835 15.99 109.835 14.75ZM120.538 8.81V18.5C120.538 19.3 120.708 19.87 121.048 20.21C121.388 20.53 121.978 20.69 122.818 20.69H124.828V23H122.368C120.848 23 119.708 22.65 118.948 21.95C118.188 21.25 117.808 20.1 117.808 18.5V8.81H115.678V6.56H117.808V2.42H120.538V6.56H124.828V8.81H120.538ZM143.136 14.15C143.136 14.67 143.106 15.22 143.046 15.8H129.906C130.006 17.42 130.556 18.69 131.556 19.61C132.576 20.51 133.806 20.96 135.246 20.96C136.426 20.96 137.406 20.69 138.186 20.15C138.986 19.59 139.546 18.85 139.866 17.93H142.806C142.366 19.51 141.486 20.8 140.166 21.8C138.846 22.78 137.206 23.27 135.246 23.27C133.686 23.27 132.286 22.92 131.046 22.22C129.826 21.52 128.866 20.53 128.166 19.25C127.466 17.95 127.116 16.45 127.116 14.75C127.116 13.05 127.456 11.56 128.136 10.28C128.816 9 129.766 8.02 130.986 7.34C132.226 6.64 133.646 6.29 135.246 6.29C136.806 6.29 138.186 6.63 139.386 7.31C140.586 7.99 141.506 8.93 142.146 10.13C142.806 11.31 143.136 12.65 143.136 14.15ZM140.316 13.58C140.316 12.54 140.086 11.65 139.626 10.91C139.166 10.15 138.536 9.58 137.736 9.2C136.956 8.8 136.086 8.6 135.126 8.6C133.746 8.6 132.566 9.04 131.586 9.92C130.626 10.8 130.076 12.02 129.936 13.58H140.316ZM165.208 12.23C165.968 12.35 166.658 12.66 167.278 13.16C167.918 13.66 168.418 14.28 168.778 15.02C169.158 15.76 169.348 16.55 169.348 17.39C169.348 18.45 169.078 19.41 168.538 20.27C167.998 21.11 167.208 21.78 166.168 22.28C165.148 22.76 163.938 23 162.538 23H154.738V2.09H162.238C163.658 2.09 164.868 2.33 165.868 2.81C166.868 3.27 167.618 3.9 168.118 4.7C168.618 5.5 168.868 6.4 168.868 7.4C168.868 8.64 168.528 9.67 167.848 10.49C167.188 11.29 166.308 11.87 165.208 12.23ZM157.468 11.12H162.058C163.338 11.12 164.328 10.82 165.028 10.22C165.728 9.62 166.078 8.79 166.078 7.73C166.078 6.67 165.728 5.84 165.028 5.24C164.328 4.64 163.318 4.34 161.998 4.34H157.468V11.12ZM162.298 20.75C163.658 20.75 164.718 20.43 165.478 19.79C166.238 19.15 166.618 18.26 166.618 17.12C166.618 15.96 166.218 15.05 165.418 14.39C164.618 13.71 163.548 13.37 162.208 13.37H157.468V20.75H162.298ZM175.866 20.78H183.186V23H173.136V2.09H175.866V20.78ZM197.095 23L192.115 14.45H188.815V23H186.085V2.09H192.835C194.415 2.09 195.745 2.36 196.825 2.9C197.925 3.44 198.745 4.17 199.285 5.09C199.825 6.01 200.095 7.06 200.095 8.24C200.095 9.68 199.675 10.95 198.835 12.05C198.015 13.15 196.775 13.88 195.115 14.24L200.365 23H197.095ZM188.815 12.26H192.835C194.315 12.26 195.425 11.9 196.165 11.18C196.905 10.44 197.275 9.46 197.275 8.24C197.275 7 196.905 6.04 196.165 5.36C195.445 4.68 194.335 4.34 192.835 4.34H188.815V12.26ZM210.967 23.21C209.587 23.21 208.347 22.97 207.247 22.49C206.167 21.99 205.317 21.31 204.697 20.45C204.077 19.57 203.757 18.56 203.737 17.42H206.647C206.747 18.4 207.147 19.23 207.847 19.91C208.567 20.57 209.607 20.9 210.967 20.9C212.267 20.9 213.287 20.58 214.027 19.94C214.787 19.28 215.167 18.44 215.167 17.42C215.167 16.62 214.947 15.97 214.507 15.47C214.067 14.97 213.517 14.59 212.857 14.33C212.197 14.07 211.307 13.79 210.187 13.49C208.807 13.13 207.697 12.77 206.857 12.41C206.037 12.05 205.327 11.49 204.727 10.73C204.147 9.95 203.857 8.91 203.857 7.61C203.857 6.47 204.147 5.46 204.727 4.58C205.307 3.7 206.117 3.02 207.157 2.54C208.217 2.06 209.427 1.82 210.787 1.82C212.747 1.82 214.347 2.31 215.587 3.29C216.847 4.27 217.557 5.57 217.717 7.19H214.717C214.617 6.39 214.197 5.69 213.457 5.09C212.717 4.47 211.737 4.16 210.517 4.16C209.377 4.16 208.447 4.46 207.727 5.06C207.007 5.64 206.647 6.46 206.647 7.52C206.647 8.28 206.857 8.9 207.277 9.38C207.717 9.86 208.247 10.23 208.867 10.49C209.507 10.73 210.397 11.01 211.537 11.33C212.917 11.71 214.027 12.09 214.867 12.47C215.707 12.83 216.427 13.4 217.027 14.18C217.627 14.94 217.927 15.98 217.927 17.3C217.927 18.32 217.657 19.28 217.117 20.18C216.577 21.08 215.777 21.81 214.717 22.37C213.657 22.93 212.407 23.21 210.967 23.21ZM233.003 17.18C233.203 18.32 233.663 19.2 234.383 19.82C235.123 20.44 236.113 20.75 237.353 20.75C239.013 20.75 240.233 20.1 241.013 18.8C241.813 17.5 242.193 15.31 242.153 12.23C241.733 13.13 241.033 13.84 240.053 14.36C239.073 14.86 237.983 15.11 236.783 15.11C235.443 15.11 234.243 14.84 233.183 14.3C232.143 13.74 231.323 12.93 230.723 11.87C230.123 10.81 229.823 9.53 229.823 8.03C229.823 5.89 230.443 4.17 231.683 2.87C232.923 1.55 234.683 0.889999 236.963 0.889999C239.763 0.889999 241.723 1.8 242.843 3.62C243.983 5.44 244.553 8.15 244.553 11.75C244.553 14.27 244.323 16.35 243.863 17.99C243.423 19.63 242.663 20.88 241.583 21.74C240.523 22.6 239.063 23.03 237.203 23.03C235.163 23.03 233.573 22.48 232.433 21.38C231.293 20.28 230.643 18.88 230.483 17.18H233.003ZM237.233 12.8C238.573 12.8 239.673 12.39 240.533 11.57C241.393 10.73 241.823 9.6 241.823 8.18C241.823 6.68 241.403 5.47 240.563 4.55C239.723 3.63 238.543 3.17 237.023 3.17C235.623 3.17 234.503 3.61 233.663 4.49C232.843 5.37 232.433 6.53 232.433 7.97C232.433 9.43 232.843 10.6 233.663 11.48C234.483 12.36 235.673 12.8 237.233 12.8ZM248.389 11.93C248.389 8.49 248.949 5.81 250.069 3.89C251.189 1.95 253.149 0.979999 255.949 0.979999C258.729 0.979999 260.679 1.95 261.799 3.89C262.919 5.81 263.479 8.49 263.479 11.93C263.479 15.43 262.919 18.15 261.799 20.09C260.679 22.03 258.729 23 255.949 23C253.149 23 251.189 22.03 250.069 20.09C248.949 18.15 248.389 15.43 248.389 11.93ZM260.779 11.93C260.779 10.19 260.659 8.72 260.419 7.52C260.199 6.3 259.729 5.32 259.009 4.58C258.309 3.84 257.289 3.47 255.949 3.47C254.589 3.47 253.549 3.84 252.829 4.58C252.129 5.32 251.659 6.3 251.419 7.52C251.199 8.72 251.089 10.19 251.089 11.93C251.089 13.73 251.199 15.24 251.419 16.46C251.659 17.68 252.129 18.66 252.829 19.4C253.549 20.14 254.589 20.51 255.949 20.51C257.289 20.51 258.309 20.14 259.009 19.4C259.729 18.66 260.199 17.68 260.419 16.46C260.659 15.24 260.779 13.73 260.779 11.93ZM282.185 2.09C284.465 2.09 286.435 2.52 288.095 3.38C289.775 4.22 291.055 5.43 291.935 7.01C292.835 8.59 293.285 10.45 293.285 12.59C293.285 14.73 292.835 16.59 291.935 18.17C291.055 19.73 289.775 20.93 288.095 21.77C286.435 22.59 284.465 23 282.185 23H275.675V2.09H282.185ZM282.185 20.75C284.885 20.75 286.945 20.04 288.365 18.62C289.785 17.18 290.495 15.17 290.495 12.59C290.495 9.99 289.775 7.96 288.335 6.5C286.915 5.04 284.865 4.31 282.185 4.31H278.405V20.75H282.185ZM295.866 14.72C295.866 13.04 296.206 11.57 296.886 10.31C297.566 9.03 298.496 8.04 299.676 7.34C300.876 6.64 302.206 6.29 303.666 6.29C305.106 6.29 306.356 6.6 307.416 7.22C308.476 7.84 309.266 8.62 309.786 9.56V6.56H312.546V23H309.786V19.94C309.246 20.9 308.436 21.7 307.356 22.34C306.296 22.96 305.056 23.27 303.636 23.27C302.176 23.27 300.856 22.91 299.676 22.19C298.496 21.47 297.566 20.46 296.886 19.16C296.206 17.86 295.866 16.38 295.866 14.72ZM309.786 14.75C309.786 13.51 309.536 12.43 309.036 11.51C308.536 10.59 307.856 9.89 306.996 9.41C306.156 8.91 305.226 8.66 304.206 8.66C303.186 8.66 302.256 8.9 301.416 9.38C300.576 9.86 299.906 10.56 299.406 11.48C298.906 12.4 298.656 13.48 298.656 14.72C298.656 15.98 298.906 17.08 299.406 18.02C299.906 18.94 300.576 19.65 301.416 20.15C302.256 20.63 303.186 20.87 304.206 20.87C305.226 20.87 306.156 20.63 306.996 20.15C307.856 19.65 308.536 18.94 309.036 18.02C309.536 17.08 309.786 15.99 309.786 14.75ZM331.32 6.56L321.42 30.74H318.6L321.84 22.82L315.21 6.56H318.24L323.4 19.88L328.5 6.56H331.32ZM8.48 68.21C6.94 68.21 5.56 67.96 4.34 67.46C3.12 66.96 2.14 66.22 1.4 65.24C0.68 64.26 0.3 63.08 0.26 61.7H5.72C5.8 62.48 6.07 63.08 6.53 63.5C6.99 63.9 7.59 64.1 8.33 64.1C9.09 64.1 9.69 63.93 10.13 63.59C10.57 63.23 10.79 62.74 10.79 62.12C10.79 61.6 10.61 61.17 10.25 60.83C9.91 60.49 9.48 60.21 8.96 59.99C8.46 59.77 7.74 59.52 6.8 59.24C5.44 58.82 4.33 58.4 3.47 57.98C2.61 57.56 1.87 56.94 1.25 56.12C0.63 55.3 0.32 54.23 0.32 52.91C0.32 50.95 1.03 49.42 2.45 48.32C3.87 47.2 5.72 46.64 8 46.64C10.32 46.64 12.19 47.2 13.61 48.32C15.03 49.42 15.79 50.96 15.89 52.94H10.34C10.3 52.26 10.05 51.73 9.59 51.35C9.13 50.95 8.54 50.75 7.82 50.75C7.2 50.75 6.7 50.92 6.32 51.26C5.94 51.58 5.75 52.05 5.75 52.67C5.75 53.35 6.07 53.88 6.71 54.26C7.35 54.64 8.35 55.05 9.71 55.49C11.07 55.95 12.17 56.39 13.01 56.81C13.87 57.23 14.61 57.84 15.23 58.64C15.85 59.44 16.16 60.47 16.16 61.73C16.16 62.93 15.85 64.02 15.23 65C14.63 65.98 13.75 66.76 12.59 67.34C11.43 67.92 10.06 68.21 8.48 68.21ZM28.647 63.65V68H26.037C24.177 68 22.727 67.55 21.687 66.65C20.647 65.73 20.127 64.24 20.127 62.18V55.52H18.087V51.26H20.127V47.18H25.257V51.26H28.617V55.52H25.257V62.24C25.257 62.74 25.377 63.1 25.617 63.32C25.857 63.54 26.257 63.65 26.817 63.65H28.647ZM30.4845 59.6C30.4845 57.88 30.8045 56.37 31.4445 55.07C32.1045 53.77 32.9945 52.77 34.1145 52.07C35.2345 51.37 36.4845 51.02 37.8645 51.02C39.0445 51.02 40.0745 51.26 40.9545 51.74C41.8545 52.22 42.5445 52.85 43.0245 53.63V51.26H48.1545V68H43.0245V65.63C42.5245 66.41 41.8245 67.04 40.9245 67.52C40.0445 68 39.0145 68.24 37.8345 68.24C36.4745 68.24 35.2345 67.89 34.1145 67.19C32.9945 66.47 32.1045 65.46 31.4445 64.16C30.8045 62.84 30.4845 61.32 30.4845 59.6ZM43.0245 59.63C43.0245 58.35 42.6645 57.34 41.9445 56.6C41.2445 55.86 40.3845 55.49 39.3645 55.49C38.3445 55.49 37.4745 55.86 36.7545 56.6C36.0545 57.32 35.7045 58.32 35.7045 59.6C35.7045 60.88 36.0545 61.9 36.7545 62.66C37.4745 63.4 38.3445 63.77 39.3645 63.77C40.3845 63.77 41.2445 63.4 41.9445 62.66C42.6645 61.92 43.0245 60.91 43.0245 59.63ZM62.0959 68L56.9959 60.98V68H51.8659V45.8H56.9959V58.07L62.0659 51.26H68.3959L61.4359 59.66L68.4559 68H62.0959ZM86.1908 59.36C86.1908 59.84 86.1608 60.34 86.1008 60.86H74.4908C74.5708 61.9 74.9008 62.7 75.4808 63.26C76.0808 63.8 76.8108 64.07 77.6708 64.07C78.9508 64.07 79.8408 63.53 80.3408 62.45H85.8008C85.5208 63.55 85.0108 64.54 84.2708 65.42C83.5508 66.3 82.6408 66.99 81.5408 67.49C80.4408 67.99 79.2108 68.24 77.8508 68.24C76.2108 68.24 74.7508 67.89 73.4708 67.19C72.1908 66.49 71.1908 65.49 70.4708 64.19C69.7508 62.89 69.3908 61.37 69.3908 59.63C69.3908 57.89 69.7408 56.37 70.4408 55.07C71.1608 53.77 72.1608 52.77 73.4408 52.07C74.7208 51.37 76.1908 51.02 77.8508 51.02C79.4708 51.02 80.9108 51.36 82.1708 52.04C83.4308 52.72 84.4108 53.69 85.1108 54.95C85.8308 56.21 86.1908 57.68 86.1908 59.36ZM80.9408 58.01C80.9408 57.13 80.6408 56.43 80.0408 55.91C79.4408 55.39 78.6908 55.13 77.7908 55.13C76.9308 55.13 76.2008 55.38 75.6008 55.88C75.0208 56.38 74.6608 57.09 74.5208 58.01H80.9408ZM111.305 53.72C111.305 54.94 111.025 56.06 110.465 57.08C109.905 58.08 109.045 58.89 107.885 59.51C106.725 60.13 105.285 60.44 103.565 60.44H100.385V68H95.2545V46.94H103.565C105.245 46.94 106.665 47.23 107.825 47.81C108.985 48.39 109.855 49.19 110.435 50.21C111.015 51.23 111.305 52.4 111.305 53.72ZM103.175 56.36C104.155 56.36 104.885 56.13 105.365 55.67C105.845 55.21 106.085 54.56 106.085 53.72C106.085 52.88 105.845 52.23 105.365 51.77C104.885 51.31 104.155 51.08 103.175 51.08H100.385V56.36H103.175ZM119.105 54.05C119.705 53.13 120.455 52.41 121.355 51.89C122.255 51.35 123.255 51.08 124.355 51.08V56.51H122.945C121.665 56.51 120.705 56.79 120.065 57.35C119.425 57.89 119.105 58.85 119.105 60.23V68H113.975V51.26H119.105V54.05ZM134.427 68.24C132.787 68.24 131.307 67.89 129.987 67.19C128.687 66.49 127.657 65.49 126.897 64.19C126.157 62.89 125.787 61.37 125.787 59.63C125.787 57.91 126.167 56.4 126.927 55.1C127.687 53.78 128.727 52.77 130.047 52.07C131.367 51.37 132.847 51.02 134.487 51.02C136.127 51.02 137.607 51.37 138.927 52.07C140.247 52.77 141.287 53.78 142.047 55.1C142.807 56.4 143.187 57.91 143.187 59.63C143.187 61.35 142.797 62.87 142.017 64.19C141.257 65.49 140.207 66.49 138.867 67.19C137.547 67.89 136.067 68.24 134.427 68.24ZM134.427 63.8C135.407 63.8 136.237 63.44 136.917 62.72C137.617 62 137.967 60.97 137.967 59.63C137.967 58.29 137.627 57.26 136.947 56.54C136.287 55.82 135.467 55.46 134.487 55.46C133.487 55.46 132.657 55.82 131.997 56.54C131.337 57.24 131.007 58.27 131.007 59.63C131.007 60.97 131.327 62 131.967 62.72C132.627 63.44 133.447 63.8 134.427 63.8ZM154.309 55.52H151.549V68H146.419V55.52H144.559V51.26H146.419V50.78C146.419 48.72 147.009 47.16 148.189 46.1C149.369 45.02 151.099 44.48 153.379 44.48C153.759 44.48 154.039 44.49 154.219 44.51V48.86C153.239 48.8 152.549 48.94 152.149 49.28C151.749 49.62 151.549 50.23 151.549 51.11V51.26H154.309V55.52ZM159.299 49.52C158.399 49.52 157.659 49.26 157.079 48.74C156.519 48.2 156.239 47.54 156.239 46.76C156.239 45.96 156.519 45.3 157.079 44.78C157.659 44.24 158.399 43.97 159.299 43.97C160.179 43.97 160.899 44.24 161.459 44.78C162.039 45.3 162.329 45.96 162.329 46.76C162.329 47.54 162.039 48.2 161.459 48.74C160.899 49.26 160.179 49.52 159.299 49.52ZM161.849 51.26V68H156.719V51.26H161.849ZM174.897 63.65V68H172.287C170.427 68 168.977 67.55 167.937 66.65C166.897 65.73 166.377 64.24 166.377 62.18V55.52H164.337V51.26H166.377V47.18H171.507V51.26H174.867V55.52H171.507V62.24C171.507 62.74 171.627 63.1 171.867 63.32C172.107 63.54 172.507 63.65 173.067 63.65H174.897Z" fill="url(#paint0_linear)"/>
<defs>
<linearGradient id="paint0_linear" x1="-1" y1="26.6667" x2="335.02" y2="27.7576" gradientUnits="userSpaceOnUse">
<stop stop-color="#C35F29"/>
<stop offset="1" stop-color="#D9239D"/>
</linearGradient>
</defs>
</svg>
