<svg width="222" height="46" viewBox="0 0 222 46" fill="none" xmlns="http://www.w3.org/2000/svg">
<path d="M0.442031 8.02C0.442031 6.66 0.748698 5.44 1.36203 4.36C1.97536 3.26667 2.8087 2.41333 3.86203 1.8C4.9287 1.18667 6.1087 0.879999 7.40203 0.879999C8.92203 0.879999 10.2487 1.24667 11.382 1.98C12.5154 2.71333 13.342 3.75333 13.862 5.1H11.682C11.2954 4.26 10.7354 3.61333 10.002 3.16C9.28203 2.70667 8.41536 2.48 7.40203 2.48C6.4287 2.48 5.55536 2.70667 4.78203 3.16C4.0087 3.61333 3.40203 4.26 2.96203 5.1C2.52203 5.92667 2.30203 6.9 2.30203 8.02C2.30203 9.12667 2.52203 10.1 2.96203 10.94C3.40203 11.7667 4.0087 12.4067 4.78203 12.86C5.55536 13.3133 6.4287 13.54 7.40203 13.54C8.41536 13.54 9.28203 13.32 10.002 12.88C10.7354 12.4267 11.2954 11.78 11.682 10.94H13.862C13.342 12.2733 12.5154 13.3067 11.382 14.04C10.2487 14.76 8.92203 15.12 7.40203 15.12C6.1087 15.12 4.9287 14.82 3.86203 14.22C2.8087 13.6067 1.97536 12.76 1.36203 11.68C0.748698 10.6 0.442031 9.38 0.442031 8.02ZM15.8913 9.48C15.8913 8.36 16.1179 7.38 16.5713 6.54C17.0246 5.68667 17.6446 5.02667 18.4313 4.56C19.2313 4.09333 20.1179 3.86 21.0913 3.86C22.0513 3.86 22.8846 4.06667 23.5913 4.48C24.2979 4.89333 24.8246 5.41333 25.1713 6.04V4.04H27.0113V15H25.1713V12.96C24.8113 13.6 24.2713 14.1333 23.5513 14.56C22.8446 14.9733 22.0179 15.18 21.0713 15.18C20.0979 15.18 19.2179 14.94 18.4313 14.46C17.6446 13.98 17.0246 13.3067 16.5713 12.44C16.1179 11.5733 15.8913 10.5867 15.8913 9.48ZM25.1713 9.5C25.1713 8.67333 25.0046 7.95333 24.6713 7.34C24.3379 6.72667 23.8846 6.26 23.3113 5.94C22.7513 5.60667 22.1313 5.44 21.4513 5.44C20.7713 5.44 20.1513 5.6 19.5913 5.92C19.0313 6.24 18.5846 6.70667 18.2513 7.32C17.9179 7.93333 17.7513 8.65333 17.7513 9.48C17.7513 10.32 17.9179 11.0533 18.2513 11.68C18.5846 12.2933 19.0313 12.7667 19.5913 13.1C20.1513 13.42 20.7713 13.58 21.4513 13.58C22.1313 13.58 22.7513 13.42 23.3113 13.1C23.8846 12.7667 24.3379 12.2933 24.6713 11.68C25.0046 11.0533 25.1713 10.3267 25.1713 9.5ZM31.9069 0.2V15H30.0869V0.2H31.9069ZM34.3288 9.5C34.3288 8.36667 34.5554 7.38 35.0088 6.54C35.4621 5.68667 36.0888 5.02667 36.8888 4.56C37.7021 4.09333 38.6288 3.86 39.6688 3.86C41.0154 3.86 42.1221 4.18667 42.9888 4.84C43.8688 5.49333 44.4488 6.4 44.7288 7.56H42.7688C42.5821 6.89333 42.2154 6.36667 41.6688 5.98C41.1354 5.59333 40.4688 5.4 39.6688 5.4C38.6288 5.4 37.7888 5.76 37.1488 6.48C36.5088 7.18667 36.1888 8.19333 36.1888 9.5C36.1888 10.82 36.5088 11.84 37.1488 12.56C37.7888 13.28 38.6288 13.64 39.6688 13.64C40.4688 13.64 41.1354 13.4533 41.6688 13.08C42.2021 12.7067 42.5688 12.1733 42.7688 11.48H44.7288C44.4354 12.6 43.8488 13.5 42.9688 14.18C42.0888 14.8467 40.9888 15.18 39.6688 15.18C38.6288 15.18 37.7021 14.9467 36.8888 14.48C36.0888 14.0133 35.4621 13.3533 35.0088 12.5C34.5554 11.6467 34.3288 10.6467 34.3288 9.5ZM56.8772 4.04V15H55.0572V13.38C54.7105 13.94 54.2239 14.38 53.5972 14.7C52.9839 15.0067 52.3039 15.16 51.5572 15.16C50.7039 15.16 49.9372 14.9867 49.2572 14.64C48.5772 14.28 48.0372 13.7467 47.6372 13.04C47.2505 12.3333 47.0572 11.4733 47.0572 10.46V4.04H48.8572V10.22C48.8572 11.3 49.1305 12.1333 49.6772 12.72C50.2239 13.2933 50.9705 13.58 51.9172 13.58C52.8905 13.58 53.6572 13.28 54.2172 12.68C54.7772 12.08 55.0572 11.2067 55.0572 10.06V4.04H56.8772ZM61.7702 0.2V15H59.9502V0.2H61.7702ZM64.192 9.48C64.192 8.36 64.4187 7.38 64.872 6.54C65.3254 5.68667 65.9454 5.02667 66.732 4.56C67.532 4.09333 68.4187 3.86 69.392 3.86C70.352 3.86 71.1854 4.06667 71.892 4.48C72.5987 4.89333 73.1254 5.41333 73.472 6.04V4.04H75.312V15H73.472V12.96C73.112 13.6 72.572 14.1333 71.852 14.56C71.1454 14.9733 70.3187 15.18 69.372 15.18C68.3987 15.18 67.5187 14.94 66.732 14.46C65.9454 13.98 65.3254 13.3067 64.872 12.44C64.4187 11.5733 64.192 10.5867 64.192 9.48ZM73.472 9.5C73.472 8.67333 73.3054 7.95333 72.972 7.34C72.6387 6.72667 72.1854 6.26 71.612 5.94C71.052 5.60667 70.432 5.44 69.752 5.44C69.072 5.44 68.452 5.6 67.892 5.92C67.332 6.24 66.8854 6.70667 66.552 7.32C66.2187 7.93333 66.052 8.65333 66.052 9.48C66.052 10.32 66.2187 11.0533 66.552 11.68C66.8854 12.2933 67.332 12.7667 67.892 13.1C68.452 13.42 69.072 13.58 69.752 13.58C70.432 13.58 71.052 13.42 71.612 13.1C72.1854 12.7667 72.6387 12.2933 72.972 11.68C73.3054 11.0533 73.472 10.3267 73.472 9.5ZM80.6077 5.54V12C80.6077 12.5333 80.721 12.9133 80.9477 13.14C81.1743 13.3533 81.5677 13.46 82.1277 13.46H83.4677V15H81.8277C80.8143 15 80.0543 14.7667 79.5477 14.3C79.041 13.8333 78.7877 13.0667 78.7877 12V5.54H77.3677V4.04H78.7877V1.28H80.6077V4.04H83.4677V5.54H80.6077ZM95.6728 9.1C95.6728 9.44667 95.6528 9.81333 95.6128 10.2H86.8528C86.9195 11.28 87.2861 12.1267 87.9528 12.74C88.6328 13.34 89.4528 13.64 90.4128 13.64C91.1995 13.64 91.8528 13.46 92.3728 13.1C92.9061 12.7267 93.2795 12.2333 93.4928 11.62H95.4528C95.1595 12.6733 94.5728 13.5333 93.6928 14.2C92.8128 14.8533 91.7195 15.18 90.4128 15.18C89.3728 15.18 88.4395 14.9467 87.6128 14.48C86.7995 14.0133 86.1595 13.3533 85.6928 12.5C85.2261 11.6333 84.9928 10.6333 84.9928 9.5C84.9928 8.36667 85.2195 7.37333 85.6728 6.52C86.1261 5.66667 86.7595 5.01333 87.5728 4.56C88.3995 4.09333 89.3461 3.86 90.4128 3.86C91.4528 3.86 92.3728 4.08667 93.1728 4.54C93.9728 4.99333 94.5861 5.62 95.0128 6.42C95.4528 7.20667 95.6728 8.1 95.6728 9.1ZM93.7928 8.72C93.7928 8.02667 93.6395 7.43333 93.3328 6.94C93.0261 6.43333 92.6061 6.05333 92.0728 5.8C91.5528 5.53333 90.9728 5.4 90.3328 5.4C89.4128 5.4 88.6261 5.69333 87.9728 6.28C87.3328 6.86667 86.9661 7.68 86.8728 8.72H93.7928ZM110.387 7.82C110.894 7.9 111.354 8.10667 111.767 8.44C112.194 8.77333 112.527 9.18667 112.767 9.68C113.021 10.1733 113.147 10.7 113.147 11.26C113.147 11.9667 112.967 12.6067 112.607 13.18C112.247 13.74 111.721 14.1867 111.027 14.52C110.347 14.84 109.541 15 108.607 15H103.407V1.06H108.407C109.354 1.06 110.161 1.22 110.827 1.54C111.494 1.84667 111.994 2.26667 112.327 2.8C112.661 3.33333 112.827 3.93333 112.827 4.6C112.827 5.42667 112.601 6.11333 112.147 6.66C111.707 7.19333 111.121 7.58 110.387 7.82ZM105.227 7.08H108.287C109.141 7.08 109.801 6.88 110.267 6.48C110.734 6.08 110.967 5.52667 110.967 4.82C110.967 4.11333 110.734 3.56 110.267 3.16C109.801 2.76 109.127 2.56 108.247 2.56H105.227V7.08ZM108.447 13.5C109.354 13.5 110.061 13.2867 110.567 12.86C111.074 12.4333 111.327 11.84 111.327 11.08C111.327 10.3067 111.061 9.7 110.527 9.26C109.994 8.80667 109.281 8.58 108.387 8.58H105.227V13.5H108.447ZM117.493 13.52H122.373V15H115.673V1.06H117.493V13.52ZM131.646 15L128.326 9.3H126.126V15H124.306V1.06H128.806C129.859 1.06 130.746 1.24 131.466 1.6C132.199 1.96 132.746 2.44667 133.106 3.06C133.466 3.67333 133.646 4.37333 133.646 5.16C133.646 6.12 133.366 6.96667 132.806 7.7C132.259 8.43333 131.432 8.92 130.326 9.16L133.826 15H131.646ZM126.126 7.84H128.806C129.792 7.84 130.532 7.6 131.026 7.12C131.519 6.62667 131.766 5.97333 131.766 5.16C131.766 4.33333 131.519 3.69333 131.026 3.24C130.546 2.78667 129.806 2.56 128.806 2.56H126.126V7.84ZM140.894 15.14C139.974 15.14 139.147 14.98 138.414 14.66C137.694 14.3267 137.127 13.8733 136.714 13.3C136.3 12.7133 136.087 12.04 136.074 11.28H138.014C138.08 11.9333 138.347 12.4867 138.814 12.94C139.294 13.38 139.987 13.6 140.894 13.6C141.76 13.6 142.44 13.3867 142.934 12.96C143.44 12.52 143.694 11.96 143.694 11.28C143.694 10.7467 143.547 10.3133 143.254 9.98C142.96 9.64667 142.594 9.39333 142.154 9.22C141.714 9.04667 141.12 8.86 140.374 8.66C139.454 8.42 138.714 8.18 138.154 7.94C137.607 7.7 137.134 7.32667 136.734 6.82C136.347 6.3 136.154 5.60667 136.154 4.74C136.154 3.98 136.347 3.30667 136.734 2.72C137.12 2.13333 137.66 1.68 138.354 1.36C139.06 1.04 139.867 0.879999 140.774 0.879999C142.08 0.879999 143.147 1.20667 143.974 1.86C144.814 2.51333 145.287 3.38 145.394 4.46H143.394C143.327 3.92667 143.047 3.46 142.554 3.06C142.06 2.64667 141.407 2.44 140.594 2.44C139.834 2.44 139.214 2.64 138.734 3.04C138.254 3.42667 138.014 3.97333 138.014 4.68C138.014 5.18667 138.154 5.6 138.434 5.92C138.727 6.24 139.08 6.48667 139.494 6.66C139.92 6.82 140.514 7.00667 141.274 7.22C142.194 7.47333 142.934 7.72667 143.494 7.98C144.054 8.22 144.534 8.6 144.934 9.12C145.334 9.62667 145.534 10.32 145.534 11.2C145.534 11.88 145.354 12.52 144.994 13.12C144.634 13.72 144.1 14.2067 143.394 14.58C142.687 14.9533 141.854 15.14 140.894 15.14ZM155.584 11.12C155.717 11.88 156.024 12.4667 156.504 12.88C156.997 13.2933 157.657 13.5 158.484 13.5C159.591 13.5 160.404 13.0667 160.924 12.2C161.457 11.3333 161.711 9.87333 161.684 7.82C161.404 8.42 160.937 8.89333 160.284 9.24C159.631 9.57333 158.904 9.74 158.104 9.74C157.211 9.74 156.411 9.56 155.704 9.2C155.011 8.82667 154.464 8.28667 154.064 7.58C153.664 6.87333 153.464 6.02 153.464 5.02C153.464 3.59333 153.877 2.44667 154.704 1.58C155.531 0.699999 156.704 0.259999 158.224 0.259999C160.091 0.259999 161.397 0.866666 162.144 2.08C162.904 3.29333 163.284 5.1 163.284 7.5C163.284 9.18 163.131 10.5667 162.824 11.66C162.531 12.7533 162.024 13.5867 161.304 14.16C160.597 14.7333 159.624 15.02 158.384 15.02C157.024 15.02 155.964 14.6533 155.204 13.92C154.444 13.1867 154.011 12.2533 153.904 11.12H155.584ZM158.404 8.2C159.297 8.2 160.031 7.92667 160.604 7.38C161.177 6.82 161.464 6.06667 161.464 5.12C161.464 4.12 161.184 3.31333 160.624 2.7C160.064 2.08667 159.277 1.78 158.264 1.78C157.331 1.78 156.584 2.07333 156.024 2.66C155.477 3.24667 155.204 4.02 155.204 4.98C155.204 5.95333 155.477 6.73333 156.024 7.32C156.571 7.90667 157.364 8.2 158.404 8.2ZM165.842 7.62C165.842 5.32667 166.215 3.54 166.962 2.26C167.708 0.966666 169.015 0.319999 170.882 0.319999C172.735 0.319999 174.035 0.966666 174.782 2.26C175.528 3.54 175.902 5.32667 175.902 7.62C175.902 9.95333 175.528 11.7667 174.782 13.06C174.035 14.3533 172.735 15 170.882 15C169.015 15 167.708 14.3533 166.962 13.06C166.215 11.7667 165.842 9.95333 165.842 7.62ZM174.102 7.62C174.102 6.46 174.022 5.48 173.862 4.68C173.715 3.86667 173.402 3.21333 172.922 2.72C172.455 2.22667 171.775 1.98 170.882 1.98C169.975 1.98 169.282 2.22667 168.802 2.72C168.335 3.21333 168.022 3.86667 167.862 4.68C167.715 5.48 167.642 6.46 167.642 7.62C167.642 8.82 167.715 9.82667 167.862 10.64C168.022 11.4533 168.335 12.1067 168.802 12.6C169.282 13.0933 169.975 13.34 170.882 13.34C171.775 13.34 172.455 13.0933 172.922 12.6C173.402 12.1067 173.715 11.4533 173.862 10.64C174.022 9.82667 174.102 8.82 174.102 7.62ZM188.372 1.06C189.892 1.06 191.206 1.34667 192.312 1.92C193.432 2.48 194.286 3.28667 194.872 4.34C195.472 5.39333 195.772 6.63333 195.772 8.06C195.772 9.48667 195.472 10.7267 194.872 11.78C194.286 12.82 193.432 13.62 192.312 14.18C191.206 14.7267 189.892 15 188.372 15H184.032V1.06H188.372ZM188.372 13.5C190.172 13.5 191.546 13.0267 192.492 12.08C193.439 11.12 193.912 9.78 193.912 8.06C193.912 6.32667 193.432 4.97333 192.472 4C191.526 3.02667 190.159 2.54 188.372 2.54H185.852V13.5H188.372ZM197.493 9.48C197.493 8.36 197.719 7.38 198.173 6.54C198.626 5.68667 199.246 5.02667 200.033 4.56C200.833 4.09333 201.719 3.86 202.693 3.86C203.653 3.86 204.486 4.06667 205.193 4.48C205.899 4.89333 206.426 5.41333 206.773 6.04V4.04H208.613V15H206.773V12.96C206.413 13.6 205.873 14.1333 205.153 14.56C204.446 14.9733 203.619 15.18 202.673 15.18C201.699 15.18 200.819 14.94 200.033 14.46C199.246 13.98 198.626 13.3067 198.173 12.44C197.719 11.5733 197.493 10.5867 197.493 9.48ZM206.773 9.5C206.773 8.67333 206.606 7.95333 206.273 7.34C205.939 6.72667 205.486 6.26 204.913 5.94C204.353 5.60667 203.733 5.44 203.053 5.44C202.373 5.44 201.753 5.6 201.193 5.92C200.633 6.24 200.186 6.70667 199.853 7.32C199.519 7.93333 199.353 8.65333 199.353 9.48C199.353 10.32 199.519 11.0533 199.853 11.68C200.186 12.2933 200.633 12.7667 201.193 13.1C201.753 13.42 202.373 13.58 203.053 13.58C203.733 13.58 204.353 13.42 204.913 13.1C205.486 12.7667 205.939 12.2933 206.273 11.68C206.606 11.0533 206.773 10.3267 206.773 9.5ZM221.128 4.04L214.528 20.16H212.648L214.808 14.88L210.388 4.04H212.408L215.848 12.92L219.248 4.04H221.128ZM57.8552 45.14C56.8285 45.14 55.9085 44.9733 55.0952 44.64C54.2818 44.3067 53.6285 43.8133 53.1352 43.16C52.6552 42.5067 52.4018 41.72 52.3752 40.8H56.0152C56.0685 41.32 56.2485 41.72 56.5552 42C56.8618 42.2667 57.2618 42.4 57.7552 42.4C58.2618 42.4 58.6618 42.2867 58.9552 42.06C59.2485 41.82 59.3952 41.4933 59.3952 41.08C59.3952 40.7333 59.2752 40.4467 59.0352 40.22C58.8085 39.9933 58.5218 39.8067 58.1752 39.66C57.8418 39.5133 57.3618 39.3467 56.7352 39.16C55.8285 38.88 55.0885 38.6 54.5152 38.32C53.9418 38.04 53.4485 37.6267 53.0352 37.08C52.6218 36.5333 52.4152 35.82 52.4152 34.94C52.4152 33.6333 52.8885 32.6133 53.8352 31.88C54.7818 31.1333 56.0152 30.76 57.5352 30.76C59.0818 30.76 60.3285 31.1333 61.2752 31.88C62.2218 32.6133 62.7285 33.64 62.7952 34.96H59.0952C59.0685 34.5067 58.9018 34.1533 58.5952 33.9C58.2885 33.6333 57.8952 33.5 57.4152 33.5C57.0018 33.5 56.6685 33.6133 56.4152 33.84C56.1618 34.0533 56.0352 34.3667 56.0352 34.78C56.0352 35.2333 56.2485 35.5867 56.6752 35.84C57.1018 36.0933 57.7685 36.3667 58.6752 36.66C59.5818 36.9667 60.3152 37.26 60.8752 37.54C61.4485 37.82 61.9418 38.2267 62.3552 38.76C62.7685 39.2933 62.9752 39.98 62.9752 40.82C62.9752 41.62 62.7685 42.3467 62.3552 43C61.9552 43.6533 61.3685 44.1733 60.5952 44.56C59.8218 44.9467 58.9085 45.14 57.8552 45.14ZM71.2998 42.1V45H69.5598C68.3198 45 67.3532 44.7 66.6598 44.1C65.9665 43.4867 65.6198 42.4933 65.6198 41.12V36.68H64.2598V33.84H65.6198V31.12H69.0398V33.84H71.2798V36.68H69.0398V41.16C69.0398 41.4933 69.1198 41.7333 69.2798 41.88C69.4398 42.0267 69.7065 42.1 70.0798 42.1H71.2998ZM72.5248 39.4C72.5248 38.2533 72.7382 37.2467 73.1648 36.38C73.6048 35.5133 74.1982 34.8467 74.9448 34.38C75.6915 33.9133 76.5248 33.68 77.4448 33.68C78.2315 33.68 78.9182 33.84 79.5048 34.16C80.1048 34.48 80.5648 34.9 80.8848 35.42V33.84H84.3048V45H80.8848V43.42C80.5515 43.94 80.0848 44.36 79.4848 44.68C78.8982 45 78.2115 45.16 77.4248 45.16C76.5182 45.16 75.6915 44.9267 74.9448 44.46C74.1982 43.98 73.6048 43.3067 73.1648 42.44C72.7382 41.56 72.5248 40.5467 72.5248 39.4ZM80.8848 39.42C80.8848 38.5667 80.6448 37.8933 80.1648 37.4C79.6982 36.9067 79.1248 36.66 78.4448 36.66C77.7648 36.66 77.1848 36.9067 76.7048 37.4C76.2382 37.88 76.0048 38.5467 76.0048 39.4C76.0048 40.2533 76.2382 40.9333 76.7048 41.44C77.1848 41.9333 77.7648 42.18 78.4448 42.18C79.1248 42.18 79.6982 41.9333 80.1648 41.44C80.6448 40.9467 80.8848 40.2733 80.8848 39.42ZM93.5991 45L90.1991 40.32V45H86.7791V30.2H90.1991V38.38L93.5791 33.84H97.7991L93.1591 39.44L97.8391 45H93.5991ZM109.662 39.24C109.662 39.56 109.642 39.8933 109.602 40.24H101.862C101.916 40.9333 102.136 41.4667 102.522 41.84C102.922 42.2 103.409 42.38 103.982 42.38C104.836 42.38 105.429 42.02 105.762 41.3H109.402C109.216 42.0333 108.876 42.6933 108.382 43.28C107.902 43.8667 107.296 44.3267 106.562 44.66C105.829 44.9933 105.009 45.16 104.102 45.16C103.009 45.16 102.036 44.9267 101.182 44.46C100.329 43.9933 99.6623 43.3267 99.1823 42.46C98.7023 41.5933 98.4623 40.58 98.4623 39.42C98.4623 38.26 98.6957 37.2467 99.1623 36.38C99.6423 35.5133 100.309 34.8467 101.162 34.38C102.016 33.9133 102.996 33.68 104.102 33.68C105.182 33.68 106.142 33.9067 106.982 34.36C107.822 34.8133 108.476 35.46 108.942 36.3C109.422 37.14 109.662 38.12 109.662 39.24ZM106.162 38.34C106.162 37.7533 105.962 37.2867 105.562 36.94C105.162 36.5933 104.662 36.42 104.062 36.42C103.489 36.42 103.002 36.5867 102.602 36.92C102.216 37.2533 101.976 37.7267 101.882 38.34H106.162ZM126.405 35.48C126.405 36.2933 126.218 37.04 125.845 37.72C125.472 38.3867 124.898 38.9267 124.125 39.34C123.352 39.7533 122.392 39.96 121.245 39.96H119.125V45H115.705V30.96H121.245C122.365 30.96 123.312 31.1533 124.085 31.54C124.858 31.9267 125.438 32.46 125.825 33.14C126.212 33.82 126.405 34.6 126.405 35.48ZM120.985 37.24C121.638 37.24 122.125 37.0867 122.445 36.78C122.765 36.4733 122.925 36.04 122.925 35.48C122.925 34.92 122.765 34.4867 122.445 34.18C122.125 33.8733 121.638 33.72 120.985 33.72H119.125V37.24H120.985ZM131.605 35.7C132.005 35.0867 132.505 34.6067 133.105 34.26C133.705 33.9 134.372 33.72 135.105 33.72V37.34H134.165C133.312 37.34 132.672 37.5267 132.245 37.9C131.819 38.26 131.605 38.9 131.605 39.82V45H128.185V33.84H131.605V35.7ZM141.82 45.16C140.727 45.16 139.74 44.9267 138.86 44.46C137.993 43.9933 137.307 43.3267 136.8 42.46C136.307 41.5933 136.06 40.58 136.06 39.42C136.06 38.2733 136.313 37.2667 136.82 36.4C137.327 35.52 138.02 34.8467 138.9 34.38C139.78 33.9133 140.767 33.68 141.86 33.68C142.953 33.68 143.94 33.9133 144.82 34.38C145.7 34.8467 146.393 35.52 146.9 36.4C147.407 37.2667 147.66 38.2733 147.66 39.42C147.66 40.5667 147.4 41.58 146.88 42.46C146.373 43.3267 145.673 43.9933 144.78 44.46C143.9 44.9267 142.913 45.16 141.82 45.16ZM141.82 42.2C142.473 42.2 143.027 41.96 143.48 41.48C143.947 41 144.18 40.3133 144.18 39.42C144.18 38.5267 143.953 37.84 143.5 37.36C143.06 36.88 142.513 36.64 141.86 36.64C141.193 36.64 140.64 36.88 140.2 37.36C139.76 37.8267 139.54 38.5133 139.54 39.42C139.54 40.3133 139.753 41 140.18 41.48C140.62 41.96 141.167 42.2 141.82 42.2ZM155.074 36.68H153.234V45H149.814V36.68H148.574V33.84H149.814V33.52C149.814 32.1467 150.208 31.1067 150.994 30.4C151.781 29.68 152.934 29.32 154.454 29.32C154.708 29.32 154.894 29.3267 155.014 29.34V32.24C154.361 32.2 153.901 32.2933 153.634 32.52C153.368 32.7467 153.234 33.1533 153.234 33.74V33.84H155.074V36.68ZM158.401 32.68C157.801 32.68 157.308 32.5067 156.921 32.16C156.548 31.8 156.361 31.36 156.361 30.84C156.361 30.3067 156.548 29.8667 156.921 29.52C157.308 29.16 157.801 28.98 158.401 28.98C158.988 28.98 159.468 29.16 159.841 29.52C160.228 29.8667 160.421 30.3067 160.421 30.84C160.421 31.36 160.228 31.8 159.841 32.16C159.468 32.5067 158.988 32.68 158.401 32.68ZM160.101 33.84V45H156.681V33.84H160.101ZM168.8 42.1V45H167.06C165.82 45 164.853 44.7 164.16 44.1C163.467 43.4867 163.12 42.4933 163.12 41.12V36.68H161.76V33.84H163.12V31.12H166.54V33.84H168.78V36.68H166.54V41.16C166.54 41.4933 166.62 41.7333 166.78 41.88C166.94 42.0267 167.207 42.1 167.58 42.1H168.8Z" fill="url(#paint0_linear)"/>
<defs>
<linearGradient id="paint0_linear" x1="-2" y1="18" x2="223.014" y2="18.7175" gradientUnits="userSpaceOnUse">
<stop stop-color="#C35F29"/>
<stop offset="1" stop-color="#D9239D"/>
</linearGradient>
</defs>
</svg>
