<svg width="443" height="91" viewBox="0 0 443 91" fill="none" xmlns="http://www.w3.org/2000/svg">
<path d="M0.72 16.04C0.72 13.32 1.33333 10.88 2.56 8.72C3.78667 6.53333 5.45333 4.82667 7.56 3.6C9.69333 2.37333 12.0533 1.76 14.64 1.76C17.68 1.76 20.3333 2.49333 22.6 3.96C24.8667 5.42667 26.52 7.50667 27.56 10.2H23.2C22.4267 8.52 21.3067 7.22667 19.84 6.32C18.4 5.41333 16.6667 4.96 14.64 4.96C12.6933 4.96 10.9467 5.41333 9.4 6.32C7.85333 7.22667 6.64 8.52 5.76 10.2C4.88 11.8533 4.44 13.8 4.44 16.04C4.44 18.2533 4.88 20.2 5.76 21.88C6.64 23.5333 7.85333 24.8133 9.4 25.72C10.9467 26.6267 12.6933 27.08 14.64 27.08C16.6667 27.08 18.4 26.64 19.84 25.76C21.3067 24.8533 22.4267 23.56 23.2 21.88H27.56C26.52 24.5467 24.8667 26.6133 22.6 28.08C20.3333 29.52 17.68 30.24 14.64 30.24C12.0533 30.24 9.69333 29.64 7.56 28.44C5.45333 27.2133 3.78667 25.52 2.56 23.36C1.33333 21.2 0.72 18.76 0.72 16.04ZM31.6184 18.96C31.6184 16.72 32.0718 14.76 32.9784 13.08C33.8851 11.3733 35.1251 10.0533 36.6984 9.12C38.2984 8.18667 40.0718 7.72 42.0184 7.72C43.9384 7.72 45.6051 8.13333 47.0184 8.96C48.4318 9.78667 49.4851 10.8267 50.1784 12.08V8.08H53.8584V30H50.1784V25.92C49.4584 27.2 48.3784 28.2667 46.9384 29.12C45.5251 29.9467 43.8718 30.36 41.9784 30.36C40.0318 30.36 38.2718 29.88 36.6984 28.92C35.1251 27.96 33.8851 26.6133 32.9784 24.88C32.0718 23.1467 31.6184 21.1733 31.6184 18.96ZM50.1784 19C50.1784 17.3467 49.8451 15.9067 49.1784 14.68C48.5118 13.4533 47.6051 12.52 46.4584 11.88C45.3384 11.2133 44.0984 10.88 42.7384 10.88C41.3784 10.88 40.1384 11.2 39.0184 11.84C37.8984 12.48 37.0051 13.4133 36.3384 14.64C35.6718 15.8667 35.3384 17.3067 35.3384 18.96C35.3384 20.64 35.6718 22.1067 36.3384 23.36C37.0051 24.5867 37.8984 25.5333 39.0184 26.2C40.1384 26.84 41.3784 27.16 42.7384 27.16C44.0984 27.16 45.3384 26.84 46.4584 26.2C47.6051 25.5333 48.5118 24.5867 49.1784 23.36C49.8451 22.1067 50.1784 20.6533 50.1784 19ZM63.6497 0.4V30H60.0097V0.4H63.6497ZM68.4934 19C68.4934 16.7333 68.9468 14.76 69.8534 13.08C70.7601 11.3733 72.0134 10.0533 73.6134 9.12C75.2401 8.18667 77.0934 7.72 79.1734 7.72C81.8668 7.72 84.0801 8.37333 85.8134 9.68C87.5734 10.9867 88.7334 12.8 89.2934 15.12H85.3734C85.0001 13.7867 84.2668 12.7333 83.1734 11.96C82.1068 11.1867 80.7734 10.8 79.1734 10.8C77.0934 10.8 75.4134 11.52 74.1334 12.96C72.8534 14.3733 72.2134 16.3867 72.2134 19C72.2134 21.64 72.8534 23.68 74.1334 25.12C75.4134 26.56 77.0934 27.28 79.1734 27.28C80.7734 27.28 82.1068 26.9067 83.1734 26.16C84.2401 25.4133 84.9734 24.3467 85.3734 22.96H89.2934C88.7068 25.2 87.5334 27 85.7734 28.36C84.0134 29.6933 81.8134 30.36 79.1734 30.36C77.0934 30.36 75.2401 29.8933 73.6134 28.96C72.0134 28.0267 70.7601 26.7067 69.8534 25C68.9468 23.2933 68.4934 21.2933 68.4934 19ZM113.59 8.08V30H109.95V26.76C109.257 27.88 108.284 28.76 107.03 29.4C105.804 30.0133 104.444 30.32 102.95 30.32C101.244 30.32 99.7103 29.9733 98.3503 29.28C96.9903 28.56 95.9103 27.4933 95.1103 26.08C94.337 24.6667 93.9503 22.9467 93.9503 20.92V8.08H97.5503V20.44C97.5503 22.6 98.097 24.2667 99.1903 25.44C100.284 26.5867 101.777 27.16 103.67 27.16C105.617 27.16 107.15 26.56 108.27 25.36C109.39 24.16 109.95 22.4133 109.95 20.12V8.08H113.59ZM123.376 0.4V30H119.736V0.4H123.376ZM128.22 18.96C128.22 16.72 128.673 14.76 129.58 13.08C130.487 11.3733 131.727 10.0533 133.3 9.12C134.9 8.18667 136.673 7.72 138.62 7.72C140.54 7.72 142.207 8.13333 143.62 8.96C145.033 9.78667 146.087 10.8267 146.78 12.08V8.08H150.46V30H146.78V25.92C146.06 27.2 144.98 28.2667 143.54 29.12C142.127 29.9467 140.473 30.36 138.58 30.36C136.633 30.36 134.873 29.88 133.3 28.92C131.727 27.96 130.487 26.6133 129.58 24.88C128.673 23.1467 128.22 21.1733 128.22 18.96ZM146.78 19C146.78 17.3467 146.447 15.9067 145.78 14.68C145.113 13.4533 144.207 12.52 143.06 11.88C141.94 11.2133 140.7 10.88 139.34 10.88C137.98 10.88 136.74 11.2 135.62 11.84C134.5 12.48 133.607 13.4133 132.94 14.64C132.273 15.8667 131.94 17.3067 131.94 18.96C131.94 20.64 132.273 22.1067 132.94 23.36C133.607 24.5867 134.5 25.5333 135.62 26.2C136.74 26.84 137.98 27.16 139.34 27.16C140.7 27.16 141.94 26.84 143.06 26.2C144.207 25.5333 145.113 24.5867 145.78 23.36C146.447 22.1067 146.78 20.6533 146.78 19ZM161.051 11.08V24C161.051 25.0667 161.278 25.8267 161.731 26.28C162.185 26.7067 162.971 26.92 164.091 26.92H166.771V30H163.491C161.465 30 159.945 29.5333 158.931 28.6C157.918 27.6667 157.411 26.1333 157.411 24V11.08H154.571V8.08H157.411V2.56H161.051V8.08H166.771V11.08H161.051ZM191.182 18.2C191.182 18.8933 191.142 19.6267 191.062 20.4H173.542C173.675 22.56 174.408 24.2533 175.742 25.48C177.102 26.68 178.742 27.28 180.662 27.28C182.235 27.28 183.542 26.92 184.582 26.2C185.648 25.4533 186.395 24.4667 186.822 23.24H190.742C190.155 25.3467 188.982 27.0667 187.222 28.4C185.462 29.7067 183.275 30.36 180.662 30.36C178.582 30.36 176.715 29.8933 175.062 28.96C173.435 28.0267 172.155 26.7067 171.222 25C170.288 23.2667 169.822 21.2667 169.822 19C169.822 16.7333 170.275 14.7467 171.182 13.04C172.088 11.3333 173.355 10.0267 174.982 9.12C176.635 8.18667 178.528 7.72 180.662 7.72C182.742 7.72 184.582 8.17333 186.182 9.08C187.782 9.98667 189.008 11.24 189.862 12.84C190.742 14.4133 191.182 16.2 191.182 18.2ZM187.422 17.44C187.422 16.0533 187.115 14.8667 186.502 13.88C185.888 12.8667 185.048 12.1067 183.982 11.6C182.942 11.0667 181.782 10.8 180.502 10.8C178.662 10.8 177.088 11.3867 175.782 12.56C174.502 13.7333 173.768 15.36 173.582 17.44H187.422ZM220.61 15.64C221.624 15.8 222.544 16.2133 223.37 16.88C224.224 17.5467 224.89 18.3733 225.37 19.36C225.877 20.3467 226.13 21.4 226.13 22.52C226.13 23.9333 225.77 25.2133 225.05 26.36C224.33 27.48 223.277 28.3733 221.89 29.04C220.53 29.68 218.917 30 217.05 30H206.65V2.12H216.65C218.544 2.12 220.157 2.44 221.49 3.08C222.824 3.69333 223.824 4.53333 224.49 5.6C225.157 6.66667 225.49 7.86666 225.49 9.2C225.49 10.8533 225.037 12.2267 224.13 13.32C223.25 14.3867 222.077 15.16 220.61 15.64ZM210.29 14.16H216.41C218.117 14.16 219.437 13.76 220.37 12.96C221.304 12.16 221.77 11.0533 221.77 9.64C221.77 8.22667 221.304 7.12 220.37 6.32C219.437 5.52 218.09 5.12 216.33 5.12H210.29V14.16ZM216.73 27C218.544 27 219.957 26.5733 220.97 25.72C221.984 24.8667 222.49 23.68 222.49 22.16C222.49 20.6133 221.957 19.4 220.89 18.52C219.824 17.6133 218.397 17.16 216.61 17.16H210.29V27H216.73ZM234.822 27.04H244.582V30H231.182V2.12H234.822V27.04ZM263.127 30L256.487 18.6H252.087V30H248.447V2.12H257.447C259.554 2.12 261.327 2.48 262.767 3.2C264.234 3.92 265.327 4.89333 266.047 6.12C266.767 7.34667 267.127 8.74667 267.127 10.32C267.127 12.24 266.567 13.9333 265.447 15.4C264.354 16.8667 262.701 17.84 260.487 18.32L267.487 30H263.127ZM252.087 15.68H257.447C259.421 15.68 260.901 15.2 261.887 14.24C262.874 13.2533 263.367 11.9467 263.367 10.32C263.367 8.66667 262.874 7.38667 261.887 6.48C260.927 5.57333 259.447 5.12 257.447 5.12H252.087V15.68ZM281.623 30.28C279.783 30.28 278.13 29.96 276.663 29.32C275.223 28.6533 274.09 27.7467 273.263 26.6C272.436 25.4267 272.01 24.08 271.983 22.56H275.863C275.996 23.8667 276.53 24.9733 277.463 25.88C278.423 26.76 279.81 27.2 281.623 27.2C283.356 27.2 284.716 26.7733 285.703 25.92C286.716 25.04 287.223 23.92 287.223 22.56C287.223 21.4933 286.93 20.6267 286.343 19.96C285.756 19.2933 285.023 18.7867 284.143 18.44C283.263 18.0933 282.076 17.72 280.583 17.32C278.743 16.84 277.263 16.36 276.143 15.88C275.05 15.4 274.103 14.6533 273.303 13.64C272.53 12.6 272.143 11.2133 272.143 9.48C272.143 7.96 272.53 6.61333 273.303 5.44C274.076 4.26666 275.156 3.36 276.543 2.72C277.956 2.08 279.57 1.76 281.383 1.76C283.996 1.76 286.13 2.41333 287.783 3.72C289.463 5.02667 290.41 6.76 290.623 8.92H286.623C286.49 7.85333 285.93 6.92 284.943 6.12C283.956 5.29333 282.65 4.88 281.023 4.88C279.503 4.88 278.263 5.28 277.303 6.08C276.343 6.85333 275.863 7.94667 275.863 9.36C275.863 10.3733 276.143 11.2 276.703 11.84C277.29 12.48 277.996 12.9733 278.823 13.32C279.676 13.64 280.863 14.0133 282.383 14.44C284.223 14.9467 285.703 15.4533 286.823 15.96C287.943 16.44 288.903 17.2 289.703 18.24C290.503 19.2533 290.903 20.64 290.903 22.4C290.903 23.76 290.543 25.04 289.823 26.24C289.103 27.44 288.036 28.4133 286.623 29.16C285.21 29.9067 283.543 30.28 281.623 30.28ZM311.004 22.24C311.27 23.76 311.884 24.9333 312.844 25.76C313.83 26.5867 315.15 27 316.804 27C319.017 27 320.644 26.1333 321.684 24.4C322.75 22.6667 323.257 19.7467 323.204 15.64C322.644 16.84 321.71 17.7867 320.404 18.48C319.097 19.1467 317.644 19.48 316.044 19.48C314.257 19.48 312.657 19.12 311.244 18.4C309.857 17.6533 308.764 16.5733 307.964 15.16C307.164 13.7467 306.764 12.04 306.764 10.04C306.764 7.18667 307.59 4.89333 309.244 3.16C310.897 1.4 313.244 0.519998 316.284 0.519998C320.017 0.519998 322.63 1.73333 324.124 4.16C325.644 6.58667 326.404 10.2 326.404 15C326.404 18.36 326.097 21.1333 325.484 23.32C324.897 25.5067 323.884 27.1733 322.444 28.32C321.03 29.4667 319.084 30.04 316.604 30.04C313.884 30.04 311.764 29.3067 310.244 27.84C308.724 26.3733 307.857 24.5067 307.644 22.24H311.004ZM316.644 16.4C318.43 16.4 319.897 15.8533 321.044 14.76C322.19 13.64 322.764 12.1333 322.764 10.24C322.764 8.24 322.204 6.62667 321.084 5.4C319.964 4.17333 318.39 3.56 316.364 3.56C314.497 3.56 313.004 4.14667 311.884 5.32C310.79 6.49333 310.244 8.04 310.244 9.96C310.244 11.9067 310.79 13.4667 311.884 14.64C312.977 15.8133 314.564 16.4 316.644 16.4ZM331.519 15.24C331.519 10.6533 332.266 7.08 333.759 4.52C335.252 1.93333 337.866 0.639999 341.599 0.639999C345.306 0.639999 347.906 1.93333 349.399 4.52C350.892 7.08 351.639 10.6533 351.639 15.24C351.639 19.9067 350.892 23.5333 349.399 26.12C347.906 28.7067 345.306 30 341.599 30C337.866 30 335.252 28.7067 333.759 26.12C332.266 23.5333 331.519 19.9067 331.519 15.24ZM348.039 15.24C348.039 12.92 347.879 10.96 347.559 9.36C347.266 7.73333 346.639 6.42667 345.679 5.44C344.746 4.45333 343.386 3.96 341.599 3.96C339.786 3.96 338.399 4.45333 337.439 5.44C336.506 6.42667 335.879 7.73333 335.559 9.36C335.266 10.96 335.119 12.92 335.119 15.24C335.119 17.64 335.266 19.6533 335.559 21.28C335.879 22.9067 336.506 24.2133 337.439 25.2C338.399 26.1867 339.786 26.68 341.599 26.68C343.386 26.68 344.746 26.1867 345.679 25.2C346.639 24.2133 347.266 22.9067 347.559 21.28C347.879 19.6533 348.039 17.64 348.039 15.24ZM376.58 2.12C379.62 2.12 382.247 2.69333 384.46 3.84C386.7 4.96 388.407 6.57333 389.58 8.68C390.78 10.7867 391.38 13.2667 391.38 16.12C391.38 18.9733 390.78 21.4533 389.58 23.56C388.407 25.64 386.7 27.24 384.46 28.36C382.247 29.4533 379.62 30 376.58 30H367.9V2.12H376.58ZM376.58 27C380.18 27 382.927 26.0533 384.82 24.16C386.714 22.24 387.66 19.56 387.66 16.12C387.66 12.6533 386.7 9.94667 384.78 8C382.887 6.05333 380.154 5.08 376.58 5.08H371.54V27H376.58ZM394.822 18.96C394.822 16.72 395.275 14.76 396.182 13.08C397.088 11.3733 398.328 10.0533 399.902 9.12C401.502 8.18667 403.275 7.72 405.222 7.72C407.142 7.72 408.808 8.13333 410.222 8.96C411.635 9.78667 412.688 10.8267 413.382 12.08V8.08H417.062V30H413.382V25.92C412.662 27.2 411.582 28.2667 410.142 29.12C408.728 29.9467 407.075 30.36 405.182 30.36C403.235 30.36 401.475 29.88 399.902 28.92C398.328 27.96 397.088 26.6133 396.182 24.88C395.275 23.1467 394.822 21.1733 394.822 18.96ZM413.382 19C413.382 17.3467 413.048 15.9067 412.382 14.68C411.715 13.4533 410.808 12.52 409.662 11.88C408.542 11.2133 407.302 10.88 405.942 10.88C404.582 10.88 403.342 11.2 402.222 11.84C401.102 12.48 400.208 13.4133 399.542 14.64C398.875 15.8667 398.542 17.3067 398.542 18.96C398.542 20.64 398.875 22.1067 399.542 23.36C400.208 24.5867 401.102 25.5333 402.222 26.2C403.342 26.84 404.582 27.16 405.942 27.16C407.302 27.16 408.542 26.84 409.662 26.2C410.808 25.5333 411.715 24.5867 412.382 23.36C413.048 22.1067 413.382 20.6533 413.382 19ZM442.093 8.08L428.893 40.32H425.133L429.453 29.76L420.613 8.08H424.653L431.533 25.84L438.333 8.08H442.093ZM11.64 90.28C9.58667 90.28 7.74667 89.9467 6.12 89.28C4.49333 88.6133 3.18667 87.6267 2.2 86.32C1.24 85.0133 0.733333 83.44 0.68 81.6H7.96C8.06667 82.64 8.42667 83.44 9.04 84C9.65333 84.5333 10.4533 84.8 11.44 84.8C12.4533 84.8 13.2533 84.5733 13.84 84.12C14.4267 83.64 14.72 82.9867 14.72 82.16C14.72 81.4667 14.48 80.8933 14 80.44C13.5467 79.9867 12.9733 79.6133 12.28 79.32C11.6133 79.0267 10.6533 78.6933 9.4 78.32C7.58667 77.76 6.10667 77.2 4.96 76.64C3.81333 76.08 2.82667 75.2533 2 74.16C1.17333 73.0667 0.76 71.64 0.76 69.88C0.76 67.2667 1.70667 65.2267 3.6 63.76C5.49333 62.2667 7.96 61.52 11 61.52C14.0933 61.52 16.5867 62.2667 18.48 63.76C20.3733 65.2267 21.3867 67.28 21.52 69.92H14.12C14.0667 69.0133 13.7333 68.3067 13.12 67.8C12.5067 67.2667 11.72 67 10.76 67C9.93333 67 9.26667 67.2267 8.76 67.68C8.25333 68.1067 8 68.7333 8 69.56C8 70.4667 8.42667 71.1733 9.28 71.68C10.1333 72.1867 11.4667 72.7333 13.28 73.32C15.0933 73.9333 16.56 74.52 17.68 75.08C18.8267 75.64 19.8133 76.4533 20.64 77.52C21.4667 78.5867 21.88 79.96 21.88 81.64C21.88 83.24 21.4667 84.6933 20.64 86C19.84 87.3067 18.6667 88.3467 17.12 89.12C15.5733 89.8933 13.7467 90.28 11.64 90.28ZM38.5294 84.2V90H35.0494C32.5694 90 30.636 89.4 29.2494 88.2C27.8627 86.9733 27.1694 84.9867 27.1694 82.24V73.36H24.4494V67.68H27.1694V62.24H34.0094V67.68H38.4894V73.36H34.0094V82.32C34.0094 82.9867 34.1694 83.4667 34.4894 83.76C34.8094 84.0533 35.3427 84.2 36.0894 84.2H38.5294ZM40.9794 78.8C40.9794 76.5067 41.406 74.4933 42.2594 72.76C43.1394 71.0267 44.326 69.6933 45.8194 68.76C47.3127 67.8267 48.9794 67.36 50.8194 67.36C52.3927 67.36 53.766 67.68 54.9394 68.32C56.1394 68.96 57.0594 69.8 57.6994 70.84V67.68H64.5394V90H57.6994V86.84C57.0327 87.88 56.0994 88.72 54.8994 89.36C53.726 90 52.3527 90.32 50.7794 90.32C48.966 90.32 47.3127 89.8533 45.8194 88.92C44.326 87.96 43.1394 86.6133 42.2594 84.88C41.406 83.12 40.9794 81.0933 40.9794 78.8ZM57.6994 78.84C57.6994 77.1333 57.2194 75.7867 56.2594 74.8C55.326 73.8133 54.1794 73.32 52.8194 73.32C51.4594 73.32 50.2994 73.8133 49.3394 74.8C48.406 75.76 47.9394 77.0933 47.9394 78.8C47.9394 80.5067 48.406 81.8667 49.3394 82.88C50.2994 83.8667 51.4594 84.36 52.8194 84.36C54.1794 84.36 55.326 83.8667 56.2594 82.88C57.2194 81.8933 57.6994 80.5467 57.6994 78.84ZM83.1278 90L76.3278 80.64V90H69.4878V60.4H76.3278V76.76L83.0878 67.68H91.5278L82.2478 78.88L91.6078 90H83.1278ZM115.254 78.48C115.254 79.12 115.214 79.7867 115.134 80.48H99.6544C99.761 81.8667 100.201 82.9333 100.974 83.68C101.774 84.4 102.748 84.76 103.894 84.76C105.601 84.76 106.788 84.04 107.454 82.6H114.734C114.361 84.0667 113.681 85.3867 112.694 86.56C111.734 87.7333 110.521 88.6533 109.054 89.32C107.588 89.9867 105.948 90.32 104.134 90.32C101.948 90.32 100.001 89.8533 98.2944 88.92C96.5877 87.9867 95.2544 86.6533 94.2944 84.92C93.3344 83.1867 92.8544 81.16 92.8544 78.84C92.8544 76.52 93.321 74.4933 94.2544 72.76C95.2144 71.0267 96.5477 69.6933 98.2544 68.76C99.961 67.8267 101.921 67.36 104.134 67.36C106.294 67.36 108.214 67.8133 109.894 68.72C111.574 69.6267 112.881 70.92 113.814 72.6C114.774 74.28 115.254 76.24 115.254 78.48ZM108.254 76.68C108.254 75.5067 107.854 74.5733 107.054 73.88C106.254 73.1867 105.254 72.84 104.054 72.84C102.908 72.84 101.934 73.1733 101.134 73.84C100.361 74.5067 99.881 75.4533 99.6944 76.68H108.254ZM148.739 70.96C148.739 72.5867 148.366 74.08 147.619 75.44C146.873 76.7733 145.726 77.8533 144.179 78.68C142.633 79.5067 140.713 79.92 138.419 79.92H134.179V90H127.339V61.92H138.419C140.659 61.92 142.553 62.3067 144.099 63.08C145.646 63.8533 146.806 64.92 147.579 66.28C148.353 67.64 148.739 69.2 148.739 70.96ZM137.899 74.48C139.206 74.48 140.179 74.1733 140.819 73.56C141.459 72.9467 141.779 72.08 141.779 70.96C141.779 69.84 141.459 68.9733 140.819 68.36C140.179 67.7467 139.206 67.44 137.899 67.44H134.179V74.48H137.899ZM159.14 71.4C159.94 70.1733 160.94 69.2133 162.14 68.52C163.34 67.8 164.674 67.44 166.14 67.44V74.68H164.26C162.554 74.68 161.274 75.0533 160.42 75.8C159.567 76.52 159.14 77.8 159.14 79.64V90H152.3V67.68H159.14V71.4ZM179.57 90.32C177.383 90.32 175.41 89.8533 173.65 88.92C171.916 87.9867 170.543 86.6533 169.53 84.92C168.543 83.1867 168.05 81.16 168.05 78.84C168.05 76.5467 168.556 74.5333 169.57 72.8C170.583 71.04 171.97 69.6933 173.73 68.76C175.49 67.8267 177.463 67.36 179.65 67.36C181.836 67.36 183.81 67.8267 185.57 68.76C187.33 69.6933 188.716 71.04 189.73 72.8C190.743 74.5333 191.25 76.5467 191.25 78.84C191.25 81.1333 190.73 83.16 189.69 84.92C188.676 86.6533 187.276 87.9867 185.49 88.92C183.73 89.8533 181.756 90.32 179.57 90.32ZM179.57 84.4C180.876 84.4 181.983 83.92 182.89 82.96C183.823 82 184.29 80.6267 184.29 78.84C184.29 77.0533 183.836 75.68 182.93 74.72C182.05 73.76 180.956 73.28 179.65 73.28C178.316 73.28 177.21 73.76 176.33 74.72C175.45 75.6533 175.01 77.0267 175.01 78.84C175.01 80.6267 175.436 82 176.29 82.96C177.17 83.92 178.263 84.4 179.57 84.4ZM206.078 73.36H202.398V90H195.558V73.36H193.078V67.68H195.558V67.04C195.558 64.2933 196.345 62.2133 197.918 60.8C199.492 59.36 201.798 58.64 204.838 58.64C205.345 58.64 205.718 58.6533 205.958 58.68V64.48C204.652 64.4 203.732 64.5867 203.198 65.04C202.665 65.4933 202.398 66.3067 202.398 67.48V67.68H206.078V73.36ZM212.733 65.36C211.533 65.36 210.546 65.0133 209.773 64.32C209.026 63.6 208.653 62.72 208.653 61.68C208.653 60.6133 209.026 59.7333 209.773 59.04C210.546 58.32 211.533 57.96 212.733 57.96C213.906 57.96 214.866 58.32 215.613 59.04C216.386 59.7333 216.773 60.6133 216.773 61.68C216.773 62.72 216.386 63.6 215.613 64.32C214.866 65.0133 213.906 65.36 212.733 65.36ZM216.133 67.68V90H209.293V67.68H216.133ZM233.529 84.2V90H230.049C227.569 90 225.636 89.4 224.249 88.2C222.863 86.9733 222.169 84.9867 222.169 82.24V73.36H219.449V67.68H222.169V62.24H229.009V67.68H233.489V73.36H229.009V82.32C229.009 82.9867 229.169 83.4667 229.489 83.76C229.809 84.0533 230.343 84.2 231.089 84.2H233.529Z" fill="url(#paint0_linear)"/>
<defs>
<linearGradient id="paint0_linear" x1="-1" y1="34.3334" x2="451.027" y2="35.831" gradientUnits="userSpaceOnUse">
<stop stop-color="#C35F29"/>
<stop offset="1" stop-color="#D9239D"/>
</linearGradient>
</defs>
</svg>
