<svg width="1439" height="1026" viewBox="0 0 1439 1026" fill="none" xmlns="http://www.w3.org/2000/svg">
<mask id="mask0" mask-type="alpha" maskUnits="userSpaceOnUse" x="0" y="0" width="1439" height="1026">
<rect width="1439" height="1026" rx="20" fill="#001433"/>
<rect width="1439" height="1026" rx="20" stroke="white"/>
</mask>
<g mask="url(#mask0)">
<path d="M1253.24 -57.8422C1251.77 -60.5439 1249.43 -62.6674 1246.59 -63.8653C1243.76 -65.0632 1240.6 -65.2645 1237.64 -64.4365C1234.68 -63.6084 1232.08 -61.7999 1230.28 -59.3068C1228.48 -56.8137 1227.58 -53.7836 1227.72 -50.7121C1230.51 13.7978 1224.5 92.2283 1164.12 148.08C1133.23 176.634 1110.6 191.438 1051.45 207.294C722.13 295.57 434.948 223.761 373.482 207.294C314.36 191.438 290.711 176.023 260.845 148.08C200.67 91.8548 194.418 13.7638 197.272 -50.8479C197.401 -53.9132 196.488 -56.9319 194.681 -59.4122C192.874 -61.8925 190.279 -63.6884 187.32 -64.5073C184.362 -65.3262 181.212 -65.1198 178.386 -63.9219C175.559 -62.7239 173.222 -60.605 171.754 -57.9101C123.54 30.9778 65.1314 223.591 340.387 376.819C354.761 384.779 369.603 391.865 384.831 398.039C389.844 400.04 394.309 403.205 397.854 407.273C401.399 411.342 403.923 416.195 405.217 421.432L515.408 869.607C517.425 877.789 522.415 884.929 529.407 889.639L693.351 1000.19C698.966 1003.98 705.587 1006 712.362 1006C719.137 1006 725.757 1003.98 731.372 1000.19L895.452 889.571C902.432 884.855 907.409 877.715 909.417 869.539L1019.61 421.365C1020.91 416.133 1023.44 411.286 1026.99 407.219C1030.53 403.153 1034.99 399.984 1039.99 397.971C1055.24 391.804 1070.09 384.717 1084.47 376.751C1359.76 223.625 1301.56 31.0457 1253.24 -57.8422ZM836.059 631.293L675.275 851.646C673.885 853.548 671.879 854.91 669.598 855.501C667.317 856.091 664.901 855.874 662.762 854.885C660.623 853.896 658.893 852.198 657.866 850.078C656.84 847.959 656.579 845.549 657.13 843.259L712.481 615.132H597.125C595.244 615.131 593.399 614.609 591.796 613.624C590.193 612.64 588.894 611.232 588.042 609.555C587.191 607.878 586.821 605.998 586.973 604.124C587.124 602.25 587.792 600.455 588.902 598.937L749.686 378.686C751.076 376.784 753.082 375.422 755.363 374.831C757.645 374.241 760.06 374.458 762.199 375.447C764.338 376.436 766.068 378.134 767.095 380.254C768.121 382.373 768.382 384.783 767.831 387.073L712.481 615.234H827.802C829.664 615.247 831.487 615.769 833.073 616.744C834.659 617.719 835.947 619.11 836.798 620.765C837.649 622.42 838.03 624.276 837.899 626.132C837.769 627.988 837.132 629.773 836.059 631.293Z" fill="white" fill-opacity="0.07"/>
</g>
</svg>
