<svg width="280" height="2118" viewBox="0 0 280 2118" fill="none" xmlns="http://www.w3.org/2000/svg">
<mask id="mask0" mask-type="alpha" maskUnits="userSpaceOnUse" x="0" y="0" width="280" height="2118">
<rect width="280" height="2117.38" rx="20" fill="#001433"/>
<rect width="280" height="2117.38" rx="20" stroke="white"/>
</mask>
<g mask="url(#mask0)">
<path d="M323.227 176.419C322.73 175.506 321.938 174.788 320.981 174.384C320.023 173.979 318.956 173.911 317.955 174.19C316.953 174.47 316.076 175.082 315.468 175.924C314.859 176.767 314.554 177.791 314.604 178.829C315.545 200.634 313.513 227.143 293.11 246.022C282.673 255.673 275.026 260.676 255.036 266.036C143.754 295.873 46.7099 271.602 25.9393 266.036C5.96092 260.676 -2.03044 255.466 -12.123 246.022C-32.4573 227.017 -34.5699 200.622 -33.6054 178.783C-33.5618 177.747 -33.8705 176.727 -34.4811 175.889C-35.0917 175.05 -35.9684 174.443 -36.9682 174.167C-37.9681 173.89 -39.0323 173.959 -39.9874 174.364C-40.9426 174.769 -41.7324 175.486 -42.2283 176.396C-58.521 206.441 -78.2583 271.544 14.756 323.336C19.6133 326.026 24.6284 328.421 29.7742 330.508C31.4684 331.184 32.977 332.254 34.175 333.629C35.3731 335.004 36.226 336.645 36.6633 338.415L73.8989 489.899C74.5804 492.664 76.2665 495.078 78.6294 496.67L134.029 534.036C135.927 535.316 138.164 536 140.453 536C142.743 536 144.98 535.316 146.877 534.036L202.323 496.647C204.682 495.053 206.363 492.64 207.042 489.876L244.278 338.392C244.719 336.624 245.574 334.985 246.771 333.611C247.969 332.237 249.475 331.165 251.167 330.485C256.317 328.401 261.336 326.005 266.196 323.313C359.222 271.556 339.554 206.464 323.227 176.419ZM182.253 409.348L127.921 483.828C127.451 484.471 126.773 484.931 126.003 485.131C125.232 485.331 124.415 485.257 123.693 484.923C122.97 484.589 122.385 484.015 122.038 483.298C121.691 482.582 121.603 481.767 121.79 480.993L140.493 403.886H101.513C100.877 403.885 100.253 403.709 99.7118 403.376C99.17 403.044 98.731 402.568 98.4433 402.001C98.1557 401.434 98.0305 400.799 98.0818 400.165C98.1332 399.532 98.3589 398.925 98.734 398.412L153.066 323.967C153.536 323.324 154.213 322.863 154.984 322.664C155.755 322.464 156.571 322.538 157.294 322.872C158.017 323.206 158.602 323.78 158.949 324.497C159.296 325.213 159.383 326.027 159.197 326.801L140.493 403.92H179.463C180.092 403.925 180.708 404.101 181.244 404.431C181.78 404.76 182.215 405.23 182.503 405.79C182.79 406.349 182.919 406.977 182.875 407.604C182.831 408.231 182.616 408.835 182.253 409.348Z" fill="white" fill-opacity="0.07"/>
</g>
</svg>
