<svg width="675" height="951" viewBox="0 0 675 951" fill="none" xmlns="http://www.w3.org/2000/svg">
<mask id="mask0" mask-type="alpha" maskUnits="userSpaceOnUse" x="0" y="0" width="675" height="951">
<rect width="675" height="950.384" rx="20" fill="#001433"/>
<rect width="675" height="950.384" rx="20" stroke="white"/>
</mask>
<g mask="url(#mask0)">
<path d="M672.731 83.4377C671.82 81.7627 670.368 80.4462 668.611 79.7035C666.854 78.9608 664.896 78.836 663.059 79.3494C661.222 79.8628 659.613 80.984 658.497 82.5297C657.38 84.0753 656.821 85.954 656.912 87.8582C658.639 127.853 654.911 176.479 617.479 211.106C598.331 228.809 584.302 237.987 547.629 247.817C343.47 302.547 165.432 258.026 127.326 247.817C90.6738 237.987 76.0129 228.43 57.4971 211.106C20.1916 176.247 16.3157 127.832 18.0852 87.774C18.1652 85.8736 17.599 84.0021 16.4787 82.4643C15.3584 80.9266 13.7501 79.8132 11.9158 79.3055C10.0814 78.7978 8.12907 78.9257 6.37675 79.6684C4.62444 80.4111 3.17539 81.7248 2.26565 83.3956C-27.625 138.504 -63.8351 257.921 106.809 352.919C115.721 357.854 124.921 362.248 134.362 366.076C137.47 367.316 140.238 369.278 142.436 371.801C144.634 374.323 146.198 377.332 147.001 380.579L215.313 658.439C216.564 663.511 219.657 667.938 223.992 670.858L325.629 739.397C329.11 741.745 333.214 743 337.414 743C341.614 743 345.719 741.745 349.2 739.397L450.921 670.816C455.248 667.892 458.333 663.466 459.578 658.397L527.891 380.537C528.701 377.294 530.269 374.288 532.466 371.767C534.663 369.246 537.426 367.281 540.53 366.034C549.979 362.21 559.187 357.816 568.103 352.877C738.769 257.942 702.685 138.547 672.731 83.4377ZM414.1 510.689L314.422 647.303C313.561 648.482 312.317 649.327 310.903 649.693C309.489 650.059 307.991 649.924 306.665 649.312C305.339 648.699 304.267 647.646 303.63 646.331C302.993 645.017 302.832 643.523 303.174 642.104L337.488 500.669H265.974C264.807 500.668 263.664 500.345 262.67 499.734C261.676 499.124 260.87 498.251 260.343 497.211C259.815 496.172 259.585 495.006 259.679 493.845C259.774 492.683 260.188 491.569 260.876 490.628L360.554 354.077C361.415 352.898 362.659 352.053 364.073 351.687C365.487 351.321 366.985 351.456 368.311 352.069C369.637 352.682 370.709 353.735 371.346 355.049C371.982 356.363 372.144 357.857 371.802 359.277L337.488 500.732H408.981C410.136 500.74 411.266 501.064 412.249 501.669C413.232 502.273 414.031 503.135 414.558 504.161C415.086 505.187 415.322 506.338 415.241 507.489C415.16 508.64 414.766 509.746 414.1 510.689Z" fill="white" fill-opacity="0.07"/>
</g>
</svg>
