<svg width="1080" height="613" viewBox="0 0 1080 613" fill="none" xmlns="http://www.w3.org/2000/svg">
<mask id="mask0" mask-type="alpha" maskUnits="userSpaceOnUse" x="0" y="0" width="1080" height="613">
<rect width="1080" height="612.71" rx="20" fill="#001433"/>
<rect width="1080" height="612.71" rx="20" stroke="white"/>
</mask>
<g mask="url(#mask0)">
<path d="M875.731 -21.5623C874.82 -23.2373 873.368 -24.5538 871.611 -25.2965C869.854 -26.0392 867.896 -26.164 866.059 -25.6506C864.222 -25.1372 862.613 -24.016 861.497 -22.4703C860.38 -20.9247 859.821 -19.046 859.912 -17.1418C861.639 22.8531 857.911 71.4786 820.479 106.106C801.331 123.809 787.302 132.987 750.629 142.817C546.47 197.547 368.432 153.026 330.326 142.817C293.674 132.987 279.013 123.43 260.497 106.106C223.192 71.247 219.316 22.8321 221.085 -17.226C221.165 -19.1264 220.599 -20.9979 219.479 -22.5357C218.358 -24.0734 216.75 -25.1868 214.916 -25.6945C213.081 -26.2022 211.129 -26.0743 209.377 -25.3316C207.624 -24.5889 206.175 -23.2752 205.266 -21.6044C175.375 33.5044 139.165 152.921 309.809 247.919C318.721 252.854 327.921 257.248 337.362 261.076C340.47 262.316 343.238 264.278 345.436 266.801C347.634 269.323 349.198 272.332 350.001 275.579L418.313 553.439C419.564 558.511 422.657 562.938 426.992 565.858L528.629 634.397C532.11 636.745 536.214 638 540.414 638C544.614 638 548.719 636.745 552.2 634.397L653.921 565.816C658.248 562.892 661.333 558.466 662.578 553.397L730.891 275.537C731.701 272.294 733.269 269.288 735.466 266.767C737.663 264.246 740.426 262.281 743.53 261.034C752.979 257.21 762.187 252.816 771.103 247.877C941.769 152.942 905.685 33.5465 875.731 -21.5623ZM617.1 405.689L517.422 542.303C516.561 543.482 515.317 544.327 513.903 544.693C512.489 545.059 510.991 544.924 509.665 544.312C508.339 543.699 507.267 542.646 506.63 541.331C505.993 540.017 505.832 538.523 506.174 537.104L540.488 395.669H468.974C467.807 395.668 466.664 395.345 465.67 394.734C464.676 394.124 463.87 393.251 463.343 392.211C462.815 391.172 462.585 390.006 462.679 388.845C462.774 387.683 463.188 386.569 463.876 385.628L563.554 249.077C564.415 247.898 565.659 247.053 567.073 246.687C568.487 246.321 569.985 246.456 571.311 247.069C572.637 247.682 573.709 248.735 574.346 250.049C574.982 251.363 575.144 252.857 574.802 254.277L540.488 395.732H611.981C613.136 395.74 614.266 396.064 615.249 396.669C616.232 397.273 617.031 398.135 617.558 399.161C618.086 400.187 618.322 401.338 618.241 402.489C618.16 403.64 617.766 404.746 617.1 405.689Z" fill="white" fill-opacity="0.07"/>
</g>
</svg>
